<?xml version="1.0" encoding="UTF-8"?>
<svg version="1.1" xmlns="http://www.w3.org/2000/svg" width="1024" height="1024">
<path d="M0 0 C15.18 0 30.36 0 46 0 C46.01458252 3.27462158 46.02916504 6.54924316 46.04418945 9.9230957 C46.09462781 20.7677322 46.16123929 31.6122265 46.23571491 42.45672321 C46.28035649 49.02883479 46.31962649 55.60088527 46.34643555 62.1730957 C46.37253021 68.52096782 46.41297663 74.86860401 46.46318626 81.21632957 C46.47981326 83.63266238 46.49135338 86.04903596 46.49761391 88.46541786 C46.50730018 91.86171566 46.5354144 95.2574155 46.56762695 98.65356445 C46.56619186 99.64259766 46.56475677 100.63163086 46.5632782 101.65063477 C46.67084701 109.72101744 47.90426869 117.90604236 52 125 C53.81601365 126.20003343 53.81601365 126.20003343 56 127 C56.75451447 127.33523682 57.50902893 127.67047363 58.28640747 128.01586914 C68.07374582 131.56541521 80.32409697 130.12468886 90.65405655 130.07516479 C93.37792996 130.06222632 96.10175388 130.05584311 98.82565308 130.05102539 C104.59212468 130.03969979 110.35855436 130.02040965 116.125 130 C122.84681772 129.97636638 129.56861306 129.9560318 136.29046249 129.94406128 C138.9733057 129.93758332 141.65607795 129.92508588 144.33889771 129.91235352 C145.97479185 129.90872302 147.61068665 129.90537104 149.24658203 129.90234375 C149.99148392 129.89717743 150.7363858 129.89201111 151.50386047 129.88668823 C154.61635179 129.88636731 157.02270472 130.00756824 160 131 C160.33 130.34 160.66 129.68 161 129 C161.33 129.33 161.66 129.66 162 130 C164.55857914 130.07620489 167.09039743 130.09076526 169.6484375 130.0625 C170.4167691 130.05871338 171.18510071 130.05492676 171.97671509 130.05102539 C175.27620832 130.03462062 178.57557973 130.00655774 181.875 129.97949219 C184.27864003 129.96142685 186.68225994 129.94931678 189.0859375 129.9375 C189.83289886 129.92920166 190.57986023 129.92090332 191.34945679 129.91235352 C194.51299538 129.89736672 196.97454474 129.99151491 200 131 C200.33 130.34 200.66 129.68 201 129 C201.58378418 129.01571045 202.16756836 129.0314209 202.76904297 129.04760742 C205.47092595 129.11082028 208.17265259 129.14925923 210.875 129.1875 C211.7928125 129.21263672 212.710625 129.23777344 213.65625 129.26367188 C224.29065229 129.37600711 233.50345422 126.49735854 242 120 C251.07749286 110.76667035 253.29576068 99.76998796 253.31689453 87.35620117 C253.14017568 75.88583878 249.28856768 67.67655129 241.48046875 59.38671875 C228.47783049 47.14335863 212.0114809 46.65882685 195.17553711 46.79418945 C192.77772679 46.81276945 190.38029761 46.81469624 187.98242188 46.81445312 C186.45312164 46.81935841 184.92382401 46.82518236 183.39453125 46.83203125 C182.68005325 46.83314407 181.96557526 46.8342569 181.22944641 46.83540344 C177.48964801 46.81824742 177.48964801 46.81824742 174 48 C172.741875 47.835 171.48375 47.67 170.1875 47.5 C159.08002971 46.1606748 148.11286521 47.41535109 139 54.25 C138.34 54.8275 137.68 55.405 137 56 C136.34 56 135.68 56 135 56 C134.72285156 56.556875 134.44570313 57.11375 134.16015625 57.6875 C133.36372379 59.27500173 132.55855278 60.8581404 131.74609375 62.4375 C131.31425781 63.283125 130.88242187 64.12875 130.4375 65 C130.00308594 65.845625 129.56867188 66.69125 129.12109375 67.5625 C127.46575001 71.16157489 126.87428455 74.26819402 126.88647461 78.21777344 C126.88665588 79.4656665 126.88665588 79.4656665 126.88684082 80.73876953 C126.89195679 81.60356934 126.89707275 82.46836914 126.90234375 83.359375 C126.90335083 84.16133301 126.90435791 84.96329102 126.90539551 85.78955078 C126.91061527 88.7763818 126.92457653 91.76319238 126.9375 94.75 C126.9684375 104.77375 126.9684375 104.77375 127 115 C111.16 115 95.32 115 79 115 C78.40088749 108.40976239 77.89161312 102.50321307 78 96 C78.11907667 90.90471093 78.11907667 90.90471093 77 86 C77.33 85.67 77.66 85.34 78 85 C78.13682337 82.83515024 78.23280497 80.66770474 78.3125 78.5 C79.41439844 59.10799115 85.72733927 41.44377785 99 27 C99.95519531 25.94232422 99.95519531 25.94232422 100.9296875 24.86328125 C115.51379984 9.48846403 136.09714805 0.7886032 157.18830872 -0.14044189 C158.81563179 -0.1506839 158.81563179 -0.1506839 160.47583008 -0.16113281 C161.71855179 -0.17074036 162.9612735 -0.1803479 164.24165344 -0.19024658 C165.58427747 -0.19510004 166.92690368 -0.19937751 168.26953125 -0.203125 C169.30187676 -0.20736607 169.30187676 -0.20736607 170.35507774 -0.21169281 C174.00682321 -0.22663808 177.65852975 -0.23589346 181.31030273 -0.24023438 C184.29219955 -0.24459718 187.27380346 -0.25840905 190.25561523 -0.28125 C218.68019825 -0.49464321 245.0216291 0.62794728 268.125 19.484375 C270.13299754 21.15487124 270.13299754 21.15487124 273 23 C273 23.66 273 24.32 273 25 C273.66 25 274.32 25 275 25 C291.46027753 40.54823049 300.78609842 62.5259732 301.46875 84.8828125 C301.72592426 110.53594526 293.23722542 131.25330559 275.5 149.8125 C273 152 273 152 271 152 C271 152.66 271 153.32 271 154 C271.88171875 154.25652344 272.7634375 154.51304687 273.671875 154.77734375 C283.08377426 158.23500158 290.80034701 166.23555919 298 173 C298.59167969 173.515625 299.18335938 174.03125 299.79296875 174.5625 C319.2710769 192.32875541 329.50092785 220.62984959 331.15234375 246.375 C331.69877096 259.4892531 329.90842404 272.05687301 327.26953125 284.890625 C326.79426225 287.05266869 326.79426225 287.05266869 328 289 C327.01 289 326.02 289 325 289 C324.77441406 290.27230469 324.54882812 291.54460937 324.31640625 292.85546875 C323.05774156 298.48807584 320.65956609 303.25451923 317.9375 308.3125 C317.44507813 309.23603271 316.95265625 310.15956543 316.4453125 311.11108398 C311.07204508 320.99071085 304.56785782 329.39857027 297.0625 337.75 C296.35287109 338.5399939 296.35287109 338.5399939 295.62890625 339.34594727 C294.4624813 340.60540647 293.2358123 341.8085502 292 343 C291.34 343 290.68 343 290 343 C290 343.66 290 344.32 290 345 C269.23985911 362.49152297 242.52024139 374.40728507 215 373 C214.67 373.66 214.34 374.32 214 375 C214 374.34 214 373.68 214 373 C211.69 373 209.38 373 207 373 C206.67 373.66 206.34 374.32 206 375 C206 374.34 206 373.68 206 373 C203.70774565 373.11371497 201.41617612 373.24130964 199.125 373.375 C197.84882812 373.44460938 196.57265625 373.51421875 195.2578125 373.5859375 C191.91938301 373.67241106 191.91938301 373.67241106 190 376 C189.67 375.34 189.34 374.68 189 374 C185.97065509 373.34227572 185.97065509 373.34227572 183 373 C183 373.66 183 374.32 183 375 C181.02 375 179.04 375 177 375 C177 374.67 177 374.34 177 374 C176.32122803 373.87995605 175.64245605 373.75991211 174.94311523 373.63623047 C161.71766444 371.25643289 149.15011962 368.88686093 137 363 C135.51693359 362.29037109 135.51693359 362.29037109 134.00390625 361.56640625 C127.32671937 358.14909424 121.69736372 353.8465829 116 349 C115.33484375 348.48050781 114.6696875 347.96101563 113.984375 347.42578125 C102.48080996 338.14343304 93.26100348 324.24443044 87 311 C86.34 311.33 85.68 311.66 85 312 C84.61781233 310.34385343 84.28604898 308.67542976 84 307 C84.33 306.67 84.66 306.34 85 306 C84.66226563 305.08863281 84.32453125 304.17726563 83.9765625 303.23828125 C79.08511185 289.31308686 77.66650324 275.00292498 77.9921875 260.27734375 C78.00522382 256.47725568 77.50343899 252.76025418 77 249 C76.66392955 246.3336717 76.33230301 243.66680147 76 241 C72.33221462 241.05234536 68.6667003 241.14752842 65 241.25 C63.45505859 241.27126953 63.45505859 241.27126953 61.87890625 241.29296875 C54.34174747 241.53300565 48.92242785 242.83277437 43.01171875 247.60546875 C36.53751082 255.34014194 35.5535914 263.37639753 35.56762695 273.21118164 C35.5574353 274.29514221 35.54724365 275.37910278 35.53674316 276.49591064 C35.50673866 280.05071262 35.4973662 283.60524455 35.48828125 287.16015625 C35.47142531 289.63594957 35.45327385 292.11173438 35.43388367 294.58750916 C35.38647723 301.08276714 35.35660717 307.5779906 35.33044434 314.07336426 C35.30059169 320.7097897 35.25407752 327.34608399 35.20898438 333.98242188 C35.12305761 346.98821653 35.05509859 359.99404006 35 373 C31.31835892 373.16647484 27.63660864 373.33040472 23.95483398 373.49389648 C22.91881798 373.54077354 21.88280197 373.5876506 20.81539154 373.63594818 C13.55685244 373.95658193 6.32860435 374.1298267 -0.9375 374.0625 C-1.93072266 374.05798828 -2.92394531 374.05347656 -3.94726562 374.04882812 C-6.29825569 374.03747069 -8.64908375 374.021363 -11 374 C-11.95701142 371.12896574 -12.10543714 369.40970418 -12.0625 366.4375 C-12.05476563 365.55835938 -12.04703125 364.67921875 -12.0390625 363.7734375 C-12 361 -12 361 -11.9609375 358.2265625 C-11.95320313 357.34742188 -11.94546875 356.46828125 -11.9375 355.5625 C-11.92589844 354.75941406 -11.91429687 353.95632813 -11.90234375 353.12890625 C-11.91182984 350.81047095 -11.91182984 350.81047095 -13 348 C-12.34 348 -11.68 348 -11 348 C-11.57344937 345.13275314 -11.8614515 344.1385485 -14 342 C-14 341.34 -14 340.68 -14 340 C-13.01 340 -12.02 340 -11 340 C-11.16371094 338.8872168 -11.32742188 337.77443359 -11.49609375 336.62792969 C-12.10617476 331.72441701 -12.10868138 326.88791878 -12.0625 321.953125 C-12.05871338 321.01950134 -12.05492676 320.08587769 -12.05102539 319.1239624 C-12.03889392 316.16592602 -12.02025691 313.20799119 -12 310.25 C-11.97340438 306.33854436 -11.95342973 302.42713695 -11.9375 298.515625 C-11.92920166 297.62079407 -11.92090332 296.72596313 -11.91235352 295.80401611 C-11.90739868 294.5518631 -11.90739868 294.5518631 -11.90234375 293.27441406 C-11.89710693 292.54353577 -11.89187012 291.81265747 -11.88647461 291.05963135 C-11.93143571 288.98455826 -11.93143571 288.98455826 -12.53344727 286.97894287 C-13.2033817 284.13733062 -12.62211194 281.52076675 -12.25 278.66015625 C-11.97627164 275.74751545 -12.00393603 272.92453843 -12.0625 270 C-12.15996929 249.14157287 -7.13096678 230.99276897 7.4609375 215.44921875 C31.80967439 191.96205255 62.90729529 192.65808972 94.51324463 192.8626709 C98.07390931 192.88345919 101.6346041 192.8923337 105.1953125 192.90234375 C112.13027996 192.92352879 119.0651313 192.95747372 126 193 C126.00142502 194.09421768 126.00285004 195.18843536 126.00431824 196.31581116 C126.02107161 206.68622079 126.06409799 217.0562422 126.13209057 227.42644596 C126.16621296 232.75643983 126.19144747 238.08615155 126.19555664 243.41625977 C126.1998714 248.57127136 126.22859487 253.72564806 126.27343178 258.88046074 C126.28630598 260.83574141 126.29075073 262.79109845 126.28615379 264.74641609 C126.25589761 281.54165175 128.12982389 296.04882712 140 309 C157.3839922 325.58734444 178.38842674 326.18783347 201.05371094 326.18530273 C203.26255954 326.18751257 205.47092487 326.20583733 207.6796875 326.22460938 C228.76341591 326.31015638 247.24629982 320.75411067 262.9453125 306.14453125 C277.95753006 290.47588592 283.64674235 270.2898303 283.47290039 249.140625 C283.02656063 233.19335293 277.7677775 219.10882234 267.41796875 206.83984375 C266 205 266 205 265 202 C264.34 202 263.68 202 263 202 C263 201.34 263 200.68 263 200 C262.40703125 199.73445312 261.8140625 199.46890625 261.203125 199.1953125 C258.94277953 197.96895485 257.5557971 196.68923541 255.75 194.875 C251.93023819 191.474134 247.90476514 189.11656362 243.375 186.8125 C242.76108398 186.49200684 242.14716797 186.17151367 241.51464844 185.84130859 C230.11361842 180.24470171 218.70447309 178.40698812 206.11035156 178.48583984 C204.67937471 178.48036169 203.24840375 178.47311028 201.81744385 178.46424866 C198.76517959 178.44904964 195.71325072 178.44605167 192.66095734 178.45301437 C187.81565053 178.46392487 182.9706854 178.44627211 178.12542725 178.42520142 C170.44788948 178.3950694 162.77045485 178.38325983 155.09286284 178.37962496 C141.37555021 178.3729661 127.6583111 178.34353305 113.94108558 178.2945286 C109.14347339 178.27822159 104.34600972 178.27286009 99.54837298 178.27585137 C45.29419538 178.29015864 45.29419538 178.29015864 24 161 C23.39671875 160.53078125 22.7934375 160.0615625 22.171875 159.578125 C20.73737227 158.43856676 19.36174877 157.22557389 18 156 C18 155.34 18 154.68 18 154 C17.34 154 16.68 154 16 154 C4.61105313 140.49270902 -0.1707878 125.83129555 -0.11352539 108.30322266 C-0.11374443 106.54626572 -0.11374443 106.54626572 -0.1139679 104.7538147 C-0.11327243 100.89054499 -0.10549709 97.02732377 -0.09765625 93.1640625 C-0.09579077 90.48220742 -0.09431827 87.80035501 -0.09336853 85.11849976 C-0.09026527 78.7863163 -0.08206546 72.45415018 -0.07201904 66.12197435 C-0.06082665 58.91036661 -0.05533958 51.69875802 -0.05032361 44.48714375 C-0.03988198 29.65808577 -0.02154903 14.82904638 0 0 Z " fill="#F1F1F0" transform="translate(406,327)"/>
<path d="M0 0 C0.87760986 -0.00315216 1.75521973 -0.00630432 2.65942383 -0.009552 C3.61357178 -0.00752777 4.56771973 -0.00550354 5.55078125 -0.00341797 C6.52362061 -0.00437469 7.49645996 -0.00533142 8.4987793 -0.00631714 C10.56005925 -0.00699905 12.62134133 -0.00514399 14.68261719 -0.00097656 C17.84965813 0.00437153 21.01655725 -0.00092119 24.18359375 -0.00732422 C26.1809899 -0.00666344 28.17838596 -0.00538228 30.17578125 -0.00341797 C31.1299292 -0.0054422 32.08407715 -0.00746643 33.06713867 -0.009552 C34.38355347 -0.00482376 34.38355347 -0.00482376 35.7265625 0 C36.50298096 0.00079559 37.27939941 0.00159119 38.0793457 0.00241089 C39.86328125 0.12939453 39.86328125 0.12939453 40.86328125 1.12939453 C40.96104815 3.09976102 40.98699399 5.07369644 40.98632908 7.04648685 C40.98832013 8.34081766 40.99031118 9.63514847 40.99236256 10.96870142 C40.98950896 12.42388238 40.98656335 13.87906317 40.98353577 15.33424377 C40.98397133 16.86540795 40.98484597 18.39657205 40.98612493 19.92773575 C40.98837274 24.15546971 40.98434472 28.38317858 40.97934687 32.61090934 C40.97504663 37.16239987 40.97648849 41.71388887 40.97724915 46.26538086 C40.97777465 54.15786133 40.97462507 62.05033357 40.96901131 69.94281197 C40.96089992 81.35414878 40.95828146 92.7654816 40.95702332 104.17682099 C40.95483223 122.68892784 40.9481706 141.2010303 40.9387207 159.71313477 C40.92954805 177.70076475 40.9224665 195.68839354 40.91821289 213.67602539 C40.91795017 214.78393803 40.91768744 215.89185066 40.91741676 217.03333641 C40.91611176 222.5911562 40.91484805 228.148976 40.91360486 233.70679581 C40.90323047 279.8476651 40.88561061 325.98852959 40.86328125 372.12939453 C38.04890105 372.86904226 35.60766891 373.25203003 32.69311523 373.24291992 C31.8822496 373.24284439 31.07138397 373.24276886 30.23594666 373.24269104 C28.93579369 373.23494911 28.93579369 373.23494911 27.609375 373.22705078 C26.71211197 373.22563583 25.81484894 373.22422089 24.89039612 373.22276306 C22.02715701 373.21717423 19.16399661 373.20463275 16.30078125 373.19189453 C14.36914176 373.18687729 12.43750104 373.18231477 10.50585938 373.17822266 C6.25509927 373.16839658 2.0043796 373.15419083 -2.24635315 373.13612366 C-3.87646623 373.13032095 -5.50659534 373.12939453 -7.13671875 373.12939453 C-7.13671875 368.83939453 -7.13671875 364.54939453 -7.13671875 360.12939453 C-6.80671875 360.12939453 -6.47671875 360.12939453 -6.13671875 360.12939453 C-6.13671875 331.08939453 -6.13671875 302.04939453 -6.13671875 272.12939453 C-6.46671875 272.12939453 -6.79671875 272.12939453 -7.13671875 272.12939453 C-7.13671875 269.81939453 -7.13671875 267.50939453 -7.13671875 265.12939453 C-6.80671875 265.12939453 -6.47671875 265.12939453 -6.13671875 265.12939453 C-6.1349825 264.57115826 -6.13324625 264.01292199 -6.13145739 263.43776947 C-6.02853419 230.38660622 -5.9204445 197.33546442 -5.80560181 164.2843405 C-5.79183146 160.32001294 -5.77810448 156.35568523 -5.7644043 152.39135742 C-5.76167599 151.60209743 -5.75894769 150.81283744 -5.75613671 149.99966048 C-5.71200522 137.20308835 -5.67139109 124.40650732 -5.63206614 111.60991962 C-5.5916676 98.48932716 -5.54751403 85.36875125 -5.4998402 72.24818319 C-5.47051834 64.1455004 -5.44416102 56.04281892 -5.42153978 47.94011461 C-5.40391042 41.73755273 -5.38106862 35.53502025 -5.35622787 29.33248329 C-5.34683574 26.78023096 -5.33916832 24.22797164 -5.33329964 21.67570877 C-5.32507504 18.20780729 -5.31080894 14.73998361 -5.29493713 11.27210999 C-5.29395903 10.24781248 -5.29298092 9.22351497 -5.29197317 8.16817814 C-5.28649873 7.24657066 -5.28102429 6.32496318 -5.27538395 5.3754282 C-5.27272591 4.57383858 -5.27006786 3.77224897 -5.26732928 2.94636875 C-5.01422722 -0.57463316 -3.04764468 0.00312291 0 0 Z " fill="#F5F5F4" transform="translate(319.13671875,326.87060546875)"/>
<path d="M0 0 C0.87760986 -0.00315216 1.75521973 -0.00630432 2.65942383 -0.009552 C3.61357178 -0.00752777 4.56771973 -0.00550354 5.55078125 -0.00341797 C6.52362061 -0.00437469 7.49645996 -0.00533142 8.4987793 -0.00631714 C10.56005925 -0.00699905 12.62134133 -0.00514399 14.68261719 -0.00097656 C17.84965813 0.00437153 21.01655725 -0.00092119 24.18359375 -0.00732422 C26.1809899 -0.00666344 28.17838596 -0.00538228 30.17578125 -0.00341797 C31.1299292 -0.0054422 32.08407715 -0.00746643 33.06713867 -0.009552 C34.38355347 -0.00482376 34.38355347 -0.00482376 35.7265625 0 C36.50298096 0.00079559 37.27939941 0.00159119 38.0793457 0.00241089 C39.86328125 0.12939453 39.86328125 0.12939453 40.86328125 1.12939453 C40.96104815 3.09976102 40.98699399 5.07369644 40.98632908 7.04648685 C40.98832013 8.34081766 40.99031118 9.63514847 40.99236256 10.96870142 C40.98950896 12.42388238 40.98656335 13.87906317 40.98353577 15.33424377 C40.98397133 16.86540795 40.98484597 18.39657205 40.98612493 19.92773575 C40.98837274 24.15546971 40.98434472 28.38317858 40.97934687 32.61090934 C40.97504663 37.16239987 40.97648849 41.71388887 40.97724915 46.26538086 C40.97777465 54.15786133 40.97462507 62.05033357 40.96901131 69.94281197 C40.96089992 81.35414878 40.95828146 92.7654816 40.95702332 104.17682099 C40.95483223 122.68892784 40.9481706 141.2010303 40.9387207 159.71313477 C40.92954805 177.70076475 40.9224665 195.68839354 40.91821289 213.67602539 C40.91795017 214.78393803 40.91768744 215.89185066 40.91741676 217.03333641 C40.91611176 222.5911562 40.91484805 228.148976 40.91360486 233.70679581 C40.90323047 279.8476651 40.88561061 325.98852959 40.86328125 372.12939453 C38.04890105 372.86904226 35.60766891 373.25203003 32.69311523 373.24291992 C31.8822496 373.24284439 31.07138397 373.24276886 30.23594666 373.24269104 C28.93579369 373.23494911 28.93579369 373.23494911 27.609375 373.22705078 C26.71211197 373.22563583 25.81484894 373.22422089 24.89039612 373.22276306 C22.02715701 373.21717423 19.16399661 373.20463275 16.30078125 373.19189453 C14.36914176 373.18687729 12.43750104 373.18231477 10.50585938 373.17822266 C6.25509927 373.16839658 2.0043796 373.15419083 -2.24635315 373.13612366 C-3.87646623 373.13032095 -5.50659534 373.12939453 -7.13671875 373.12939453 C-7.13671875 368.83939453 -7.13671875 364.54939453 -7.13671875 360.12939453 C-6.80671875 360.12939453 -6.47671875 360.12939453 -6.13671875 360.12939453 C-6.13671875 331.08939453 -6.13671875 302.04939453 -6.13671875 272.12939453 C-6.46671875 272.12939453 -6.79671875 272.12939453 -7.13671875 272.12939453 C-7.13671875 269.81939453 -7.13671875 267.50939453 -7.13671875 265.12939453 C-6.80671875 265.12939453 -6.47671875 265.12939453 -6.13671875 265.12939453 C-6.1349825 264.57115826 -6.13324625 264.01292199 -6.13145739 263.43776947 C-6.02853419 230.38660622 -5.9204445 197.33546442 -5.80560181 164.2843405 C-5.79183146 160.32001294 -5.77810448 156.35568523 -5.7644043 152.39135742 C-5.76167599 151.60209743 -5.75894769 150.81283744 -5.75613671 149.99966048 C-5.71200522 137.20308835 -5.67139109 124.40650732 -5.63206614 111.60991962 C-5.5916676 98.48932716 -5.54751403 85.36875125 -5.4998402 72.24818319 C-5.47051834 64.1455004 -5.44416102 56.04281892 -5.42153978 47.94011461 C-5.40391042 41.73755273 -5.38106862 35.53502025 -5.35622787 29.33248329 C-5.34683574 26.78023096 -5.33916832 24.22797164 -5.33329964 21.67570877 C-5.32507504 18.20780729 -5.31080894 14.73998361 -5.29493713 11.27210999 C-5.29395903 10.24781248 -5.29298092 9.22351497 -5.29197317 8.16817814 C-5.28649873 7.24657066 -5.28102429 6.32496318 -5.27538395 5.3754282 C-5.27272591 4.57383858 -5.27006786 3.77224897 -5.26732928 2.94636875 C-5.01422722 -0.57463316 -3.04764468 0.00312291 0 0 Z M-3.13671875 2.12939453 C-3.13671875 123.89939453 -3.13671875 245.66939453 -3.13671875 371.12939453 C10.72328125 371.12939453 24.58328125 371.12939453 38.86328125 371.12939453 C38.86328125 249.35939453 38.86328125 127.58939453 38.86328125 2.12939453 C25.00328125 2.12939453 11.14328125 2.12939453 -3.13671875 2.12939453 Z " fill="#7C7D7D" transform="translate(319.13671875,326.87060546875)"/>
<path d="M0 0 C0.33 0.66 0.66 1.32 1 2 C-0.05565642 4.54190953 -1.31947845 6.94757429 -2.578125 9.39453125 C-6.27760648 18.77535929 -7.44609598 28.20136003 -7.43237305 38.21606445 C-7.4425647 39.35913055 -7.45275635 40.50219666 -7.46325684 41.67990112 C-7.49312771 45.40774603 -7.50261305 49.13533293 -7.51171875 52.86328125 C-7.52858463 55.46787859 -7.54673741 58.07246788 -7.56611633 60.67704773 C-7.60952623 66.80000881 -7.63822882 72.9229438 -7.66143972 79.04601115 C-7.68862952 86.02570097 -7.73253153 93.0052558 -7.77772844 99.98484862 C-7.87020862 114.32316968 -7.93985058 128.66150771 -8 143 C6.19 143 20.38 143 35 143 C34.98428955 139.81102051 34.9685791 136.62204102 34.95239258 133.33642578 C34.90259885 122.77928741 34.86951191 112.22214375 34.84456348 101.6649189 C34.82893299 95.26645806 34.8077423 88.86811794 34.77368164 82.46972656 C34.74099523 76.29055475 34.72312731 70.11149878 34.71536827 63.93224716 C34.70984144 61.57923434 34.69904899 59.22622759 34.68280983 56.87326431 C34.66091253 53.56787857 34.65803826 50.26296657 34.65942383 46.95751953 C34.648638 45.99294327 34.63785217 45.028367 34.6267395 44.03456116 C34.67021647 34.39812123 36.67128888 25.53261588 43.53125 18.41015625 C51.5461351 10.95995624 59.47778639 10.57746774 70 10.8125 C71.15628906 10.82603516 72.31257813 10.83957031 73.50390625 10.85351562 C76.33643004 10.88862956 79.16796307 10.93781 82 11 C82.029729 12.61672607 82.029729 12.61672607 82.06005859 14.26611328 C82.13715394 18.33305024 82.22569383 22.39967669 82.31738281 26.46630859 C82.35524971 28.21364127 82.39016914 29.96104077 82.421875 31.70849609 C82.84959035 55.00561664 85.68809553 80.16921065 101 99 C100.67 99.66 100.34 100.32 100 101 C96.8411676 97.28907079 94.51404508 93.49789353 92.25 89.1875 C91.63640625 88.02605469 91.0228125 86.86460937 90.390625 85.66796875 C89.93171875 84.78753906 89.4728125 83.90710938 89 83 C88.01 83.495 88.01 83.495 87 84 C86.61781233 82.34385343 86.28604898 80.67542976 86 79 C86.33 78.67 86.66 78.34 87 78 C86.66226563 77.08863281 86.32453125 76.17726563 85.9765625 75.23828125 C81.08511185 61.31308686 79.66650324 47.00292498 79.9921875 32.27734375 C80.00522382 28.47725568 79.50343899 24.76025418 79 21 C78.66392955 18.3336717 78.33230301 15.66680147 78 13 C74.33221462 13.05234536 70.6667003 13.14752842 67 13.25 C65.97003906 13.26417969 64.94007813 13.27835938 63.87890625 13.29296875 C56.34174747 13.53300565 50.92242785 14.83277437 45.01171875 19.60546875 C38.53751082 27.34014194 37.5535914 35.37639753 37.56762695 45.21118164 C37.5574353 46.29514221 37.54724365 47.37910278 37.53674316 48.49591064 C37.50673866 52.05071262 37.4973662 55.60524455 37.48828125 59.16015625 C37.47142531 61.63594957 37.45327385 64.11173438 37.43388367 66.58750916 C37.38647723 73.08276714 37.35660717 79.5779906 37.33044434 86.07336426 C37.30059169 92.7097897 37.25407752 99.34608399 37.20898438 105.98242188 C37.12305761 118.98821653 37.05509859 131.99404006 37 145 C33.31835892 145.16647484 29.63660864 145.33040472 25.95483398 145.49389648 C24.40080997 145.56421207 24.40080997 145.56421207 22.81539154 145.63594818 C15.55685244 145.95658193 8.32860435 146.1298267 1.0625 146.0625 C0.06927734 146.05798828 -0.92394531 146.05347656 -1.94726562 146.04882812 C-4.29825569 146.03747069 -6.64908375 146.021363 -9 146 C-9.95701142 143.12896574 -10.10543714 141.40970418 -10.0625 138.4375 C-10.05089844 137.11878906 -10.05089844 137.11878906 -10.0390625 135.7734375 C-10.01302083 133.92447917 -9.98697917 132.07552083 -9.9609375 130.2265625 C-9.95320313 129.34742188 -9.94546875 128.46828125 -9.9375 127.5625 C-9.92589844 126.75941406 -9.91429687 125.95632813 -9.90234375 125.12890625 C-9.91182984 122.81047095 -9.91182984 122.81047095 -11 120 C-10.34 120 -9.68 120 -9 120 C-9.57344937 117.13275314 -9.8614515 116.1385485 -12 114 C-12 113.34 -12 112.68 -12 112 C-11.01 112 -10.02 112 -9 112 C-9.24556641 110.3308252 -9.24556641 110.3308252 -9.49609375 108.62792969 C-10.10617476 103.72441701 -10.10868138 98.88791878 -10.0625 93.953125 C-10.05871338 93.01950134 -10.05492676 92.08587769 -10.05102539 91.1239624 C-10.03889392 88.16592602 -10.02025691 85.20799119 -10 82.25 C-9.97340438 78.33854436 -9.95342973 74.42713695 -9.9375 70.515625 C-9.92920166 69.62079407 -9.92090332 68.72596313 -9.91235352 67.80401611 C-9.90905029 66.96924744 -9.90574707 66.13447876 -9.90234375 65.27441406 C-9.89710693 64.54353577 -9.89187012 63.81265747 -9.88647461 63.05963135 C-9.93143571 60.98455826 -9.93143571 60.98455826 -10.53344727 58.97894287 C-11.2033817 56.13733062 -10.62211194 53.52076675 -10.25 50.66015625 C-9.97627164 47.74751545 -10.00393603 44.92453843 -10.0625 42 C-10.13303032 26.90651189 -8.16368532 13.04285585 0 0 Z " fill="#5C5D5E" transform="translate(404,555)"/>
<path d="M0 0 C15.18 0 30.36 0 46 0 C46.01458252 3.27462158 46.02916504 6.54924316 46.04418945 9.9230957 C46.09462781 20.7677322 46.16123929 31.6122265 46.23571491 42.45672321 C46.28035649 49.02883479 46.31962649 55.60088527 46.34643555 62.1730957 C46.37253021 68.52096782 46.41297663 74.86860401 46.46318626 81.21632957 C46.47981326 83.63266238 46.49135338 86.04903596 46.49761391 88.46541786 C46.50730018 91.86171566 46.5354144 95.2574155 46.56762695 98.65356445 C46.56619186 99.64259766 46.56475677 100.63163086 46.5632782 101.65063477 C46.67084701 109.72101744 47.90426869 117.90604236 52 125 C53.81601365 126.20003343 53.81601365 126.20003343 56 127 C56.75451447 127.33523682 57.50902893 127.67047363 58.28640747 128.01586914 C68.07374582 131.56541521 80.32409697 130.12468886 90.65405655 130.07516479 C93.37792996 130.06222632 96.10175388 130.05584311 98.82565308 130.05102539 C104.59212468 130.03969979 110.35855436 130.02040965 116.125 130 C122.84681772 129.97636638 129.56861306 129.9560318 136.29046249 129.94406128 C138.9733057 129.93758332 141.65607795 129.92508588 144.33889771 129.91235352 C145.97479185 129.90872302 147.61068665 129.90537104 149.24658203 129.90234375 C149.99148392 129.89717743 150.7363858 129.89201111 151.50386047 129.88668823 C154.61635179 129.88636731 157.02270472 130.00756824 160 131 C160.33 130.34 160.66 129.68 161 129 C161.33 129.33 161.66 129.66 162 130 C164.55857914 130.07620489 167.09039743 130.09076526 169.6484375 130.0625 C170.4167691 130.05871338 171.18510071 130.05492676 171.97671509 130.05102539 C175.27620832 130.03462062 178.57557973 130.00655774 181.875 129.97949219 C184.27864003 129.96142685 186.68225994 129.94931678 189.0859375 129.9375 C189.83289886 129.92920166 190.57986023 129.92090332 191.34945679 129.91235352 C194.51299538 129.89736672 196.97454474 129.99151491 200 131 C200.33 130.34 200.66 129.68 201 129 C201.58378418 129.01571045 202.16756836 129.0314209 202.76904297 129.04760742 C205.47092595 129.11082028 208.17265259 129.14925923 210.875 129.1875 C211.7928125 129.21263672 212.710625 129.23777344 213.65625 129.26367188 C222.71089724 129.35931956 230.25759907 127.35138515 238.125 122.8125 C239.52105469 122.01779297 239.52105469 122.01779297 240.9453125 121.20703125 C241.62335938 120.80871094 242.30140625 120.41039062 243 120 C243 120.66 243 121.32 243 122 C233.89021717 129.6927055 223.06421314 132.10944125 211.32765198 132.14044189 C210.02539673 132.14615204 208.72314148 132.15186218 207.38142395 132.15774536 C205.95553599 132.15899041 204.52964791 132.16011557 203.10375977 132.16113281 C201.58863201 132.16576664 200.0735054 132.17079205 198.55838013 132.17617798 C194.45714904 132.18924547 190.35593427 132.19573529 186.25468564 132.20018864 C183.68950703 132.20312718 181.12433281 132.20723333 178.55915642 132.21169281 C170.52449553 132.22534989 162.48984476 132.23502654 154.45517308 132.2388947 C145.1957261 132.24337786 135.93642657 132.26094522 126.67702442 132.2898953 C119.50738778 132.31153039 112.33779259 132.32159988 105.16812366 132.32293582 C100.89110852 132.32398209 96.61423231 132.32985264 92.33725166 132.34775543 C88.31443793 132.36426888 84.29186714 132.36637585 80.26903152 132.35761642 C78.79688935 132.35684793 77.32473391 132.36116399 75.85262489 132.37107468 C66.81992496 132.42829724 60.06686102 132.10921017 52.25 127.3125 C44.57322949 119.42248587 43.69547546 108.73971923 43.77294922 98.26953125 C43.77265717 97.22473099 43.77236511 96.17993073 43.77206421 95.10346985 C43.7734501 91.67306011 43.78897647 88.24287148 43.8046875 84.8125 C43.80842026 82.42496865 43.81126599 80.03743577 43.81326294 77.64990234 C43.82087866 71.38307423 43.84050948 65.11633964 43.8626709 58.84954834 C43.88317375 52.44788884 43.89227414 46.04621415 43.90234375 39.64453125 C43.9237573 27.09630658 43.95892267 14.54817572 44 2 C29.81 2 15.62 2 1 2 C1 39.95 1 77.9 1 117 C0.67 117 0.34 117 0 117 C0 78.39 0 39.78 0 0 Z " fill="#6B6C6D" transform="translate(406,327)"/>
<path d="M0 0 C3.58789548 0.03133759 7.17586054 0.04452568 10.76385498 0.05950928 C17.73602195 0.09116583 24.70791888 0.14198907 31.67987061 0.20599365 C31.68129562 1.30021133 31.68272064 2.39442902 31.68418884 3.52180481 C31.70094222 13.89221444 31.74396859 24.26223585 31.81196117 34.63243961 C31.84608356 39.96243349 31.87131808 45.2921452 31.87542725 50.62225342 C31.879742 55.77726501 31.90846548 60.93164171 31.95330238 66.08645439 C31.96617658 68.04173506 31.97062133 69.9970921 31.9660244 71.95240974 C31.93576822 88.7476454 33.8096945 103.25482077 45.67987061 116.20599365 C63.06386281 132.79333809 84.06829735 133.39382712 106.73358154 133.39129639 C108.94243014 133.39350622 111.15079547 133.41183098 113.35955811 133.43060303 C134.44328651 133.51615003 152.92617042 127.96010432 168.62518311 113.3505249 C180.43153287 101.02792791 185.69959116 85.38390366 189.67987061 69.20599365 C190.00987061 69.20599365 190.33987061 69.20599365 190.67987061 69.20599365 C189.87335839 87.43316975 180.97416883 104.1271217 168.06658936 116.7645874 C162.66371966 121.56795058 157.15150459 125.34458371 150.74237061 128.64349365 C150.13522217 128.96140869 149.52807373 129.27932373 148.90252686 129.60687256 C135.91587621 135.89389952 122.52803944 135.65024569 108.42327881 135.54217529 C105.12119164 135.51852102 101.81991216 135.52163978 98.51776123 135.52825928 C96.38299088 135.52268243 94.24822386 135.51557251 92.11346436 135.5067749 C91.1443663 135.50768631 90.17526825 135.50859772 89.17680359 135.50953674 C79.22556771 135.4084279 69.51467819 134.39481803 60.61737061 129.70599365 C59.94327148 129.35706055 59.26917236 129.00812744 58.574646 128.64862061 C48.12324384 122.98936237 39.93673259 114.9203612 34.67987061 104.20599365 C34.17933418 103.22495163 34.17933418 103.22495163 33.66868591 102.22409058 C29.45267221 92.61773613 30.17605879 82.71690126 30.28924561 72.4442749 C30.29671807 70.44218006 30.30240625 68.44007784 30.30639648 66.43797302 C30.32157362 61.20180605 30.36078619 55.96609212 30.4052124 50.73010254 C30.44633705 45.37382127 30.46444403 40.01746586 30.48455811 34.66107178 C30.52728891 24.17584811 30.59544297 13.69095875 30.67987061 3.20599365 C21.02951828 3.24428345 11.37959109 3.30397806 1.72954464 3.38989639 C-2.75292846 3.42915671 -7.23521141 3.46144903 -11.71783447 3.47698975 C-16.05585533 3.49229934 -20.39335263 3.52699215 -24.73113823 3.57430267 C-26.37380826 3.58897079 -28.01655311 3.59702614 -29.65928841 3.5978775 C-50.75883953 3.61977965 -69.79145898 9.08097369 -85.32012939 24.20599365 C-88.51535443 27.71609359 -91.4560359 31.42256151 -94.32012939 35.20599365 C-94.65012939 34.54599365 -94.98012939 33.88599365 -95.32012939 33.20599365 C-86.93045853 21.45489838 -77.07833118 13.64361841 -64.32012939 7.20599365 C-63.48481689 6.78318115 -62.64950439 6.36036865 -61.78887939 5.92474365 C-43.02978572 -2.11486792 -20.012206 -0.19407824 0 0 Z " fill="#6E6E6F" transform="translate(500.32012939453125,519.7940063476563)"/>
<path d="M0 0 C0.66 0.33 1.32 0.66 2 1 C1.12859375 1.52207031 0.2571875 2.04414063 -0.640625 2.58203125 C-20.53883075 14.75938452 -34.70505453 30.80330283 -40.36230469 54.05810547 C-41.81260872 63.02311652 -41.58681011 72.18986506 -41.6875 81.25 C-41.790625 88.4275 -41.89375 95.605 -42 103 C-20.22 103.495 -20.22 103.495 2 104 C1.80320928 91.04681983 1.80320928 91.04681983 1.54956055 78.09472656 C1.38810184 65.70508778 2.31665061 54.90167074 11.34765625 45.45703125 C21.42669118 36.56937161 32.53402269 35.55267427 45.5390625 35.70703125 C46.91482069 35.71263993 48.29058495 35.716904 49.66635132 35.71989441 C53.25357165 35.73124333 56.84041635 35.7606219 60.42749023 35.79400635 C64.10134808 35.82492455 67.77526777 35.83844578 71.44921875 35.85351562 C78.63298209 35.88550355 85.81643803 35.93657587 93 36 C93 36.33 93 36.66 93 37 C82.56071296 38.06290923 72.19650605 38.07288892 61.71337891 37.96289062 C60.61687012 37.95451172 59.52036133 37.94613281 58.390625 37.9375 C57.40094727 37.92589844 56.41126953 37.91429687 55.39160156 37.90234375 C52.98444831 37.83679688 52.98444831 37.83679688 51 39 C49.741875 38.835 48.48375 38.67 47.1875 38.5 C36.08002971 37.1606748 25.11286521 38.41535109 16 45.25 C15.34 45.8275 14.68 46.405 14 47 C13.34 47 12.68 47 12 47 C11.72285156 47.556875 11.44570313 48.11375 11.16015625 48.6875 C10.36372379 50.27500173 9.55855278 51.8581404 8.74609375 53.4375 C8.31425781 54.283125 7.88242187 55.12875 7.4375 56 C7.00308594 56.845625 6.56867187 57.69125 6.12109375 58.5625 C4.46575001 62.16157489 3.87428455 65.26819402 3.88647461 69.21777344 C3.88665588 70.4656665 3.88665588 70.4656665 3.88684082 71.73876953 C3.89195679 72.60356934 3.89707275 73.46836914 3.90234375 74.359375 C3.90335083 75.16133301 3.90435791 75.96329102 3.90539551 76.78955078 C3.91061527 79.7763818 3.92457653 82.76319238 3.9375 85.75 C3.958125 92.4325 3.97875 99.115 4 106 C-11.84 106 -27.68 106 -44 106 C-44.59911251 99.40976239 -45.10838688 93.50321307 -45 87 C-44.88092333 81.90471093 -44.88092333 81.90471093 -46 77 C-45.505 76.505 -45.505 76.505 -45 76 C-44.86317663 73.83515024 -44.76719503 71.66770474 -44.6875 69.5 C-43.58560156 50.10799115 -37.27266073 32.44377785 -24 18 C-23.36320312 17.29488281 -22.72640625 16.58976562 -22.0703125 15.86328125 C-15.88952587 9.34739173 -8.40363052 3.36145221 0 0 Z " fill="#6A6A6B" transform="translate(529,336)"/>
<path d="M0 0 C0.33 0.66 0.66 1.32 1 2 C-0.05565642 4.54190953 -1.31947845 6.94757429 -2.578125 9.39453125 C-6.27760648 18.77535929 -7.44609598 28.20136003 -7.43237305 38.21606445 C-7.4425647 39.35913055 -7.45275635 40.50219666 -7.46325684 41.67990112 C-7.49312771 45.40774603 -7.50261305 49.13533293 -7.51171875 52.86328125 C-7.52858463 55.46787859 -7.54673741 58.07246788 -7.56611633 60.67704773 C-7.60952623 66.80000881 -7.63822882 72.9229438 -7.66143972 79.04601115 C-7.68862952 86.02570097 -7.73253153 93.0052558 -7.77772844 99.98484862 C-7.87020862 114.32316968 -7.93985058 128.66150771 -8 143 C6.19 143 20.38 143 35 143 C35 129.14 35 115.28 35 101 C35.33 101 35.66 101 36 101 C36.33 115.52 36.66 130.04 37 145 C21.64333952 145.76306387 6.3738055 146.13970325 -9 146 C-9.95701142 143.12896574 -10.10543714 141.40970418 -10.0625 138.4375 C-10.05089844 137.11878906 -10.05089844 137.11878906 -10.0390625 135.7734375 C-10.01302083 133.92447917 -9.98697917 132.07552083 -9.9609375 130.2265625 C-9.95320313 129.34742188 -9.94546875 128.46828125 -9.9375 127.5625 C-9.92589844 126.75941406 -9.91429687 125.95632813 -9.90234375 125.12890625 C-9.91182984 122.81047095 -9.91182984 122.81047095 -11 120 C-10.34 120 -9.68 120 -9 120 C-9.57344937 117.13275314 -9.8614515 116.1385485 -12 114 C-12 113.34 -12 112.68 -12 112 C-11.01 112 -10.02 112 -9 112 C-9.24556641 110.3308252 -9.24556641 110.3308252 -9.49609375 108.62792969 C-10.10617476 103.72441701 -10.10868138 98.88791878 -10.0625 93.953125 C-10.05871338 93.01950134 -10.05492676 92.08587769 -10.05102539 91.1239624 C-10.03889392 88.16592602 -10.02025691 85.20799119 -10 82.25 C-9.97340438 78.33854436 -9.95342973 74.42713695 -9.9375 70.515625 C-9.92920166 69.62079407 -9.92090332 68.72596313 -9.91235352 67.80401611 C-9.90905029 66.96924744 -9.90574707 66.13447876 -9.90234375 65.27441406 C-9.89710693 64.54353577 -9.89187012 63.81265747 -9.88647461 63.05963135 C-9.93143571 60.98455826 -9.93143571 60.98455826 -10.53344727 58.97894287 C-11.2033817 56.13733062 -10.62211194 53.52076675 -10.25 50.66015625 C-9.97627164 47.74751545 -10.00393603 44.92453843 -10.0625 42 C-10.13303032 26.90651189 -8.16368532 13.04285585 0 0 Z " fill="#5C5D5E" transform="translate(404,555)"/>
<path d="M0 0 C0.99 0.495 0.99 0.495 2 1 C-16.48808105 17.03302422 -42.56834594 26.24934595 -67 25 C-67.33 25.66 -67.66 26.32 -68 27 C-68 26.34 -68 25.68 -68 25 C-70.31 25 -72.62 25 -75 25 C-75.33 25.66 -75.66 26.32 -76 27 C-76 26.34 -76 25.68 -76 25 C-78.29225435 25.11371497 -80.58382388 25.24130964 -82.875 25.375 C-84.15117188 25.44460938 -85.42734375 25.51421875 -86.7421875 25.5859375 C-90.08061699 25.67241106 -90.08061699 25.67241106 -92 28 C-92.495 27.01 -92.495 27.01 -93 26 C-96.02934491 25.34227572 -96.02934491 25.34227572 -99 25 C-99 25.66 -99 26.32 -99 27 C-100.98 27 -102.96 27 -105 27 C-105 26.67 -105 26.34 -105 26 C-105.67877197 25.87995605 -106.35754395 25.75991211 -107.05688477 25.63623047 C-124.40670068 22.51429152 -141.09673671 19.01970809 -156 9 C-156.66 8.01 -157.32 7.02 -158 6 C-154.35560424 7.36225969 -150.93427965 9.02532265 -147.4831543 10.81762695 C-127.80202938 20.99055355 -108.35199909 23.53649613 -86.38427734 23.39111328 C-83.50179766 23.37501004 -80.62071936 23.39108021 -77.73828125 23.41015625 C-49.45437732 23.44254683 -22.77669111 17.52053162 0 0 Z " fill="#626263" transform="translate(688,675)"/>
<path d="M0 0 C6.27 0 12.54 0 19 0 C19.12117188 2.50851562 19.24234375 5.01703125 19.3671875 7.6015625 C19.49145415 10.08081082 19.61794106 12.55993685 19.74462891 15.0390625 C19.83027351 16.73784078 19.91367654 18.43673384 19.99462891 20.13574219 C21.10082788 43.2703232 23.77319495 68.27386709 39 87 C38.67 87.66 38.34 88.32 38 89 C34.8411676 85.28907079 32.51404508 81.49789353 30.25 77.1875 C29.63640625 76.02605469 29.0228125 74.86460937 28.390625 73.66796875 C27.70226562 72.34732422 27.70226562 72.34732422 27 71 C26.01 71.495 26.01 71.495 25 72 C24.61781233 70.34385343 24.28604898 68.67542976 24 67 C24.33 66.67 24.66 66.34 25 66 C24.66226562 65.08863281 24.32453125 64.17726563 23.9765625 63.23828125 C19.08511185 49.31308686 17.66650324 35.00292498 17.9921875 20.27734375 C18.00522181 16.4778429 17.5058569 12.7597472 17 9 C16.81181372 7.47925143 16.62427989 5.95842194 16.4375 4.4375 C16.293125 3.303125 16.14875 2.16875 16 1 C10.72 1 5.44 1 0 1 C0 0.67 0 0.34 0 0 Z " fill="#707072" transform="translate(466,567)"/>
<path d="M0 0 C0.33 0 0.66 0 1 0 C1.00586624 0.61450516 1.01173248 1.22901031 1.01777649 1.86213684 C1.08210115 8.30348385 1.16661797 14.74434915 1.26245117 21.18530273 C1.29554442 23.5836753 1.32362402 25.98212284 1.34643555 28.38061523 C1.38026944 31.84390983 1.43259941 35.30652703 1.48828125 38.76953125 C1.49467117 39.82831985 1.5010611 40.88710846 1.50764465 41.97798157 C1.66904403 50.29680343 2.77542442 58.67072543 7 66 C8.81601365 67.20003343 8.81601365 67.20003343 11 68 C11.75539063 68.33515625 12.51078125 68.6703125 13.2890625 69.015625 C24.00284977 72.90593392 37.70322789 71.08763658 49 71 C60.05820203 70.91421417 70.98484866 70.8743641 82 72 C82 72.33 82 72.66 82 73 C73.7936348 73.0697286 65.58739486 73.12292659 57.38080597 73.15543652 C53.56951886 73.17104525 49.7584355 73.1921949 45.94726562 73.22631836 C42.26437904 73.2590842 38.58168756 73.276889 34.89866638 73.28463173 C33.49853955 73.29014453 32.09842254 73.30090926 30.69837952 73.31719017 C21.7057998 73.41753737 15.03239088 73.08805804 7.25 68.3125 C1.89181354 62.80547503 -0.13116065 56.13675988 -0.11352539 48.58886719 C-0.11344986 47.50804871 -0.11337433 46.42723022 -0.11329651 45.31365967 C-0.10813522 44.15312073 -0.10297394 42.99258179 -0.09765625 41.796875 C-0.0962413 40.60394836 -0.09482635 39.41102173 -0.09336853 38.1819458 C-0.08777038 34.37127171 -0.07521819 30.56065634 -0.0625 26.75 C-0.05748476 24.16666752 -0.0529219 21.58333411 -0.04882812 19 C-0.03780155 12.66664663 -0.02106524 6.33332751 0 0 Z " fill="#454546" transform="translate(451,386)"/>
<path d="M0 0 C0.33 0 0.66 0 1 0 C1.33 14.52 1.66 29.04 2 44 C-13.35666048 44.76306387 -28.6261945 45.13970325 -44 45 C-45.22329074 41.33012779 -44.88021006 38.66032178 -44.5625 34.8125 C-44.46066406 33.54019531 -44.35882813 32.26789062 -44.25390625 30.95703125 C-44.17011719 29.98121094 -44.08632813 29.00539063 -44 28 C-43.67 28 -43.34 28 -43 28 C-43 32.62 -43 37.24 -43 42 C-28.81 42 -14.62 42 0 42 C0 28.14 0 14.28 0 0 Z " fill="#757677" transform="translate(439,656)"/>
<path d="M0 0 C2 2 2 2 2.22705078 5.89892578 C2.22673341 7.58108793 2.21539396 9.26327019 2.1953125 10.9453125 C2.1924826 11.8303244 2.18965271 12.7153363 2.18673706 13.62716675 C2.1755224 16.45991412 2.1504157 19.29234784 2.125 22.125 C2.11497185 24.04296419 2.10584572 25.96093333 2.09765625 27.87890625 C2.07557889 32.58605876 2.04104045 37.29297616 2 42 C1.67 42 1.34 42 1 42 C1 36.06 1 30.12 1 24 C0.34 23.67 -0.32 23.34 -1 23 C-1.6875 19.5 -1.6875 19.5 -2 16 C-1.67 15.67 -1.34 15.34 -1 15 C-0.76346477 12.47403741 -0.57826308 9.96892793 -0.4375 7.4375 C-0.39431641 6.72658203 -0.35113281 6.01566406 -0.30664062 5.28320312 C-0.20028223 3.52238088 -0.09961154 1.7612168 0 0 Z " fill="#BDBDBD" transform="translate(485,397)"/>
<path d="M0 0 C3.0649092 1.33801412 4.85360933 2.70907981 6.9375 5.3125 C8.73182446 7.49357108 10.49663451 9.49663451 12.5 11.5 C21.26086957 20.26086957 21.26086957 20.26086957 23 26 C19.40523299 22.50794062 16.07973809 18.95966325 13 15 C13 14.34 13 13.68 13 13 C12.34 13 11.68 13 11 13 C11 12.34 11 11.68 11 11 C10.42765625 10.74476563 9.8553125 10.48953125 9.265625 10.2265625 C6.75826267 8.86912841 4.8669544 7.28025896 2.75 5.375 C2.04359375 4.74335937 1.3371875 4.11171875 0.609375 3.4609375 C0.07828125 2.97882812 -0.4528125 2.49671875 -1 2 C-0.67 1.34 -0.34 0.68 0 0 Z " fill="#757677" transform="translate(658,516)"/>
<path d="M0 0 C0 0.33 0 0.66 0 1 C-1.051875 1.14695312 -1.051875 1.14695312 -2.125 1.296875 C-8.84362 2.35578793 -15.65908994 3.5853934 -20.59375 8.62890625 C-22 10 -22 10 -24 10 C-24.4021875 10.86625 -24.4021875 10.86625 -24.8125 11.75 C-26.01719859 14.0325868 -27.40798115 15.9737942 -29 18 C-28.57706443 13.20673016 -26.41306721 10.21779222 -23 7 C-16.50130302 1.87325016 -8.29374639 -2.15077615 0 0 Z " fill="#767577" transform="translate(565,373)"/>
<path d="M0 0 C0.33 0 0.66 0 1 0 C1.19335938 0.74765625 1.38671875 1.4953125 1.5859375 2.265625 C1.97652344 3.74289062 1.97652344 3.74289062 2.375 5.25 C2.63023437 6.22453125 2.88546875 7.1990625 3.1484375 8.203125 C4.4796404 12.88137864 4.4796404 12.88137864 7.8125 16.125 C8.534375 16.41375 9.25625 16.7025 10 17 C10.78375 17.350625 11.5675 17.70125 12.375 18.0625 C15.23827149 19.08509696 17.99391003 19.58054559 21 20 C21 20.66 21 21.32 21 22 C13.9912929 21.74513792 9.22980107 19.74689213 4 15 C0.38448925 10.21162919 -0.49094152 5.89129829 0 0 Z " fill="#676869" transform="translate(452,437)"/>
<path d="M0 0 C6.27 0 12.54 0 19 0 C19 5.94 19 11.88 19 18 C16.52078845 14.28118267 16.92648099 12.41114084 17 8 C16.67 5.69 16.34 3.38 16 1 C10.72 1 5.44 1 0 1 C0 0.67 0 0.34 0 0 Z " fill="#E7E7E6" transform="translate(466,567)"/>
<path d="M0 0 C0.88945313 0.0515625 1.77890625 0.103125 2.6953125 0.15625 C3.61570312 0.22070312 4.53609375 0.28515625 5.484375 0.3515625 C6.42023437 0.40828125 7.35609375 0.465 8.3203125 0.5234375 C10.62580948 0.66459038 12.93016428 0.815966 15.234375 0.9765625 C13.914375 2.2965625 12.594375 3.6165625 11.234375 4.9765625 C10.904375 4.3165625 10.574375 3.6565625 10.234375 2.9765625 C7.20503009 2.31883822 7.20503009 2.31883822 4.234375 1.9765625 C4.234375 2.6365625 4.234375 3.2965625 4.234375 3.9765625 C2.254375 3.9765625 0.274375 3.9765625 -1.765625 3.9765625 C-1.765625 3.6465625 -1.765625 3.3165625 -1.765625 2.9765625 C-4.075625 2.6465625 -6.385625 2.3165625 -8.765625 1.9765625 C-5.65565722 0.14680234 -3.58379618 -0.22973052 0 0 Z " fill="#898988" transform="translate(584.765625,698.0234375)"/>
<path d="M0 0 C0.99 0.33 1.98 0.66 3 1 C3.26554688 1.73605469 3.53109375 2.47210937 3.8046875 3.23046875 C5.40158813 6.93047708 8.03177432 8.89031051 11.125 11.3125 C11.68832031 11.76689453 12.25164063 12.22128906 12.83203125 12.68945312 C14.2140536 13.80209823 15.60605846 14.90232432 17 16 C11.32857541 16 7.01446875 10.69595551 3 7 C1.36016634 5.0298115 0.21785634 3.2617332 -1 1 C-0.67 0.67 -0.34 0.34 0 0 Z " fill="#808081" transform="translate(513,664)"/>
<path d="M0 0 C3 3 3 3 3.29296875 5.26171875 C3.25816406 6.06222656 3.22335937 6.86273438 3.1875 7.6875 C3.16042969 8.49574219 3.13335938 9.30398438 3.10546875 10.13671875 C3.07066406 10.75160156 3.03585937 11.36648438 3 12 C2.34 12 1.68 12 1 12 C1 15.63 1 19.26 1 23 C0.67 23 0.34 23 0 23 C0 15.41 0 7.82 0 0 Z " fill="#ECEDEC" transform="translate(703,404)"/>
<path d="M0 0 C0.33 0 0.66 0 1 0 C1 6.6 1 13.2 1 20 C-1 16 -1 16 -2 13 C-1.67 12.67 -1.34 12.34 -1 12 C-0.76572222 9.98405418 -0.58663876 7.961526 -0.4375 5.9375 C-0.35371094 4.83277344 -0.26992188 3.72804688 -0.18359375 2.58984375 C-0.12300781 1.73519531 -0.06242187 0.88054687 0 0 Z " fill="#5E6060" transform="translate(485,400)"/>
<path d="M0 0 C0.33 0 0.66 0 1 0 C1 7.59 1 15.18 1 23 C0.67 23 0.34 23 0 23 C0 15.41 0 7.82 0 0 Z " fill="#DCDCDC" transform="translate(312,641)"/>
<path d="M0 0 C0.33 0 0.66 0 1 0 C1 7.59 1 15.18 1 23 C0.67 23 0.34 23 0 23 C0 15.41 0 7.82 0 0 Z " fill="#DCDEDD" transform="translate(312,417)"/>
<path d="M0 0 C0.33 0 0.66 0 1 0 C1 4.29 1 8.58 1 13 C0.34 12.67 -0.32 12.34 -1 12 C-2.08209933 7.31090292 -2.21980248 4.30902834 0 0 Z " fill="#767678" transform="translate(395,607)"/>
<path d="M0 0 C0.33 0 0.66 0 1 0 C1 6.27 1 12.54 1 19 C0.67 19 0.34 19 0 19 C0 12.73 0 6.46 0 0 Z " fill="#DDDEDE" transform="translate(312,533)"/>
<path d="M0 0 C4.95 0.99 4.95 0.99 10 2 C10 2.66 10 3.32 10 4 C2.25 3.125 2.25 3.125 0 2 C0 1.34 0 0.68 0 0 Z " fill="#7C7B7C" transform="translate(463,455)"/>
<path d="M0 0 C0.33 0 0.66 0 1 0 C1 3.96 1 7.92 1 12 C0.67 12 0.34 12 0 12 C0 8.04 0 4.08 0 0 Z " fill="#DCDDDE" transform="translate(312,600)"/>
<path d="M0 0 C0.33 0 0.66 0 1 0 C1 3.63 1 7.26 1 11 C0.67 11 0.34 11 0 11 C0 7.37 0 3.74 0 0 Z " fill="#DADBDB" transform="translate(312,667)"/>
<path d="M0 0 C0.33 0 0.66 0 1 0 C1 2.31 1 4.62 1 7 C0.67 7 0.34 7 0 7 C0 4.69 0 2.38 0 0 Z " fill="#D9DBDB" transform="translate(312,616)"/>
<path d="M0 0 C0.33 0 0.66 0 1 0 C1 2.31 1 4.62 1 7 C0.67 7 0.34 7 0 7 C0 4.69 0 2.38 0 0 Z " fill="#EAEAEB" transform="translate(688,569)"/>
<path d="M0 0 C0.33 0 0.66 0 1 0 C1 2.31 1 4.62 1 7 C0.67 7 0.34 7 0 7 C0 4.69 0 2.38 0 0 Z " fill="#DEDFDF" transform="translate(312,525)"/>
<path d="M0 0 C0.33 0 0.66 0 1 0 C1 2.31 1 4.62 1 7 C0.67 7 0.34 7 0 7 C0 4.69 0 2.38 0 0 Z " fill="#DBDDDC" transform="translate(312,497)"/>
<path d="M0 0 C0.33 0 0.66 0 1 0 C1 2.31 1 4.62 1 7 C0.67 7 0.34 7 0 7 C0 4.69 0 2.38 0 0 Z " fill="#DCDDDD" transform="translate(312,441)"/>
<path d="M0 0 C0.33 0 0.66 0 1 0 C1 2.31 1 4.62 1 7 C0.67 7 0.34 7 0 7 C0 4.69 0 2.38 0 0 Z " fill="#EAEAE9" transform="translate(404,441)"/>
<path d="M0 0 C0.33 0 0.66 0 1 0 C1 1.98 1 3.96 1 6 C0.34 5.34 -0.32 4.68 -1 4 C-0.625 1.875 -0.625 1.875 0 0 Z " fill="#EBEBEB" transform="translate(658,409)"/>
<path d="M0 0 C0.33 0 0.66 0 1 0 C1 2.31 1 4.62 1 7 C0.67 7 0.34 7 0 7 C0 4.69 0 2.38 0 0 Z " fill="#EEEEEE" transform="translate(404,377)"/>
<path d="M0 0 C0.33 0 0.66 0 1 0 C1 2.31 1 4.62 1 7 C0.67 7 0.34 7 0 7 C0 4.69 0 2.38 0 0 Z " fill="#D9D8D9" transform="translate(312,329)"/>
<path d="M0 0 C0.66 0 1.32 0 2 0 C2.33 0.99 2.66 1.98 3 3 C2.01 2.67 1.02 2.34 0 2 C0 1.34 0 0.68 0 0 Z " fill="#EAEAEB" transform="translate(498,651)"/>
<path d="M0 0 C0.33 0 0.66 0 1 0 C1 1.98 1 3.96 1 6 C0.67 6 0.34 6 0 6 C0 4.02 0 2.04 0 0 Z " fill="#D9D9DA" transform="translate(312,633)"/>
<path d="M0 0 C0.33 0 0.66 0 1 0 C1 1.98 1 3.96 1 6 C0.67 6 0.34 6 0 6 C0 4.02 0 2.04 0 0 Z " fill="#DFDFE0" transform="translate(312,576)"/>
<path d="M0 0 C0.33 0 0.66 0 1 0 C1 1.98 1 3.96 1 6 C0.67 6 0.34 6 0 6 C0 4.02 0 2.04 0 0 Z " fill="#DDDDDD" transform="translate(312,568)"/>
<path d="M0 0 C0.33 0 0.66 0 1 0 C1 1.98 1 3.96 1 6 C0.67 6 0.34 6 0 6 C0 4.02 0 2.04 0 0 Z " fill="#DEDFDE" transform="translate(312,561)"/>
<path d="M0 0 C0.33 0 0.66 0 1 0 C1 1.98 1 3.96 1 6 C0.67 6 0.34 6 0 6 C0 4.02 0 2.04 0 0 Z " fill="#DDDEDF" transform="translate(312,553)"/>
<path d="M0 0 C0.33 0 0.66 0 1 0 C1 1.98 1 3.96 1 6 C0.67 6 0.34 6 0 6 C0 4.02 0 2.04 0 0 Z " fill="#DCDDDD" transform="translate(312,512)"/>
<path d="M0 0 C0.33 0 0.66 0 1 0 C1 1.98 1 3.96 1 6 C0.67 6 0.34 6 0 6 C0 4.02 0 2.04 0 0 Z " fill="#DFE1E1" transform="translate(312,473)"/>
<path d="M0 0 C0.33 0 0.66 0 1 0 C1 1.98 1 3.96 1 6 C0.67 6 0.34 6 0 6 C0 4.02 0 2.04 0 0 Z " fill="#DFDFE0" transform="translate(312,449)"/>
<path d="M0 0 C0.33 0 0.66 0 1 0 C1 1.98 1 3.96 1 6 C0.67 6 0.34 6 0 6 C0 4.02 0 2.04 0 0 Z " fill="#F0F0F0" transform="translate(404,385)"/>
<path d="M0 0 C0.33 0 0.66 0 1 0 C1 1.65 1 3.3 1 5 C0.67 5 0.34 5 0 5 C0 3.35 0 1.7 0 0 Z " fill="#D6D7D7" transform="translate(312,681)"/>
<path d="M0 0 C0.33 0 0.66 0 1 0 C1 1.65 1 3.3 1 5 C0.67 5 0.34 5 0 5 C0 3.35 0 1.7 0 0 Z " fill="#DCDDDE" transform="translate(312,586)"/>
<path d="M0 0 C0.33 0 0.66 0 1 0 C1 1.65 1 3.3 1 5 C0.67 5 0.34 5 0 5 C0 3.35 0 1.7 0 0 Z " fill="#DDDEDE" transform="translate(312,519)"/>
<path d="M0 0 C0.33 0 0.66 0 1 0 C1 1.65 1 3.3 1 5 C0.67 5 0.34 5 0 5 C0 3.35 0 1.7 0 0 Z " fill="#DCDDDD" transform="translate(312,491)"/>
<path d="M0 0 C0.33 0 0.66 0 1 0 C1 1.65 1 3.3 1 5 C0.67 5 0.34 5 0 5 C0 3.35 0 1.7 0 0 Z " fill="#F1F2F0" transform="translate(404,435)"/>
<path d="M0 0 C0.33 0 0.66 0 1 0 C1 1.65 1 3.3 1 5 C0.67 5 0.34 5 0 5 C0 3.35 0 1.7 0 0 Z " fill="#F0F0EF" transform="translate(404,427)"/>
<path d="M0 0 C0.33 0 0.66 0 1 0 C1 1.65 1 3.3 1 5 C0.67 5 0.34 5 0 5 C0 3.35 0 1.7 0 0 Z " fill="#DBDDDC" transform="translate(312,387)"/>
<path d="M0 0 C0.33 0 0.66 0 1 0 C1 1.65 1 3.3 1 5 C0.67 5 0.34 5 0 5 C0 3.35 0 1.7 0 0 Z " fill="#DADADB" transform="translate(312,377)"/>
<path d="M0 0 C0.33 0 0.66 0 1 0 C1 1.65 1 3.3 1 5 C0.67 5 0.34 5 0 5 C0 3.35 0 1.7 0 0 Z " fill="#F0F0EF" transform="translate(404,363)"/>
<path d="M0 0 C0.33 0 0.66 0 1 0 C1 1.65 1 3.3 1 5 C0.67 5 0.34 5 0 5 C0 3.35 0 1.7 0 0 Z " fill="#EDEEEC" transform="translate(404,355)"/>
<path d="M0 0 C0.33 0 0.66 0 1 0 C1 1.65 1 3.3 1 5 C0.67 5 0.34 5 0 5 C0 3.35 0 1.7 0 0 Z " fill="#EDEFED" transform="translate(404,347)"/>
<path d="M0 0 C0.99 0.495 0.99 0.495 2 1 C1.67 1.66 1.34 2.32 1 3 C0.67 2.01 0.34 1.02 0 0 Z " fill="#E2E0E1" transform="translate(627,701)"/>
<path d="M0 0 C0.66 0 1.32 0 2 0 C2 0.66 2 1.32 2 2 C1.34 2 0.68 2 0 2 C0 1.34 0 0.68 0 0 Z " fill="#E5E4E5" transform="translate(546,693)"/>
<path d="M0 0 C1 4 1 4 1 4 Z " fill="#F0F1F0" transform="translate(404,419)"/>
<path d="M0 0 C1 4 1 4 1 4 Z " fill="#F0F1F0" transform="translate(404,412)"/>
<path d="M0 0 C1 4 1 4 1 4 Z " fill="#F0F0EF" transform="translate(404,404)"/>
<path d="M0 0 C1 4 1 4 1 4 Z " fill="#EFF0EF" transform="translate(404,395)"/>
<path d="M0 0 C0.66 0.66 1.32 1.32 2 2 C1.01 1.67 0.02 1.34 -1 1 C-0.67 0.67 -0.34 0.34 0 0 Z " fill="#EFEEED" transform="translate(634,378)"/>
<path d="M0 0 C1 4 1 4 1 4 Z " fill="#EFEEEE" transform="translate(404,371)"/>
<path d="M0 0 C1 4 1 4 1 4 Z " fill="#D7D7D8" transform="translate(312,368)"/>
<path d="M0 0 C1 4 1 4 1 4 Z " fill="#DBDBDB" transform="translate(312,363)"/>
<path d="M0 0 C1 4 1 4 1 4 Z " fill="#DADBDB" transform="translate(312,355)"/>
<path d="M0 0 C1 4 1 4 1 4 Z " fill="#ECEDEC" transform="translate(404,339)"/>
<path d="M0 0 C3 1 3 1 3 1 Z " fill="#DEDFDF" transform="translate(632,701)"/>
<path d="M0 0 C3 1 3 1 3 1 Z " fill="#E5E5E5" transform="translate(600,701)"/>
<path d="M0 0 C3 1 3 1 3 1 Z " fill="#E2E2E2" transform="translate(577,701)"/>
<path d="M0 0 C3 1 3 1 3 1 Z " fill="#DFDEDF" transform="translate(659,694)"/>
<path d="" fill="#EBEAEA" transform="translate(0,0)"/>
<path d="M0 0 C0.33 0.66 0.66 1.32 1 2 C0.34 1.67 -0.32 1.34 -1 1 C-0.67 0.67 -0.34 0.34 0 0 Z " fill="#EAE8E9" transform="translate(489,632)"/>
<path d="" fill="#DBDCDC" transform="translate(0,0)"/>
<path d="" fill="#EAEAEC" transform="translate(0,0)"/>
<path d="M0 0 C0.33 0.66 0.66 1.32 1 2 C0.34 1.67 -0.32 1.34 -1 1 C-0.67 0.67 -0.34 0.34 0 0 Z " fill="#EAEAEB" transform="translate(395,569)"/>
<path d="M0 0 C0.66 0.66 1.32 1.32 2 2 C1.34 2 0.68 2 0 2 C0 1.34 0 0.68 0 0 Z " fill="#EBEBEC" transform="translate(681,548)"/>
<path d="" fill="#E9E9E9" transform="translate(0,0)"/>
<path d="M0 0 C3 1 3 1 3 1 Z " fill="#EBEAEB" transform="translate(634,509)"/>
<path d="" fill="#DCDCDD" transform="translate(0,0)"/>
<path d="M0 0 C0.66 0 1.32 0 2 0 C1.67 0.66 1.34 1.32 1 2 C0.67 1.34 0.34 0.68 0 0 Z " fill="#ECEAEB" transform="translate(450,501)"/>
<path d="M0 0 C3 1 3 1 3 1 Z " fill="#ECECEB" transform="translate(435,495)"/>
<path d="" fill="#DDDEDF" transform="translate(0,0)"/>
<path d="" fill="#DDDDDC" transform="translate(0,0)"/>
<path d="" fill="#DDDDDD" transform="translate(0,0)"/>
<path d="" fill="#DCDDDB" transform="translate(0,0)"/>
<path d="M0 0 C3 1 3 1 3 1 Z " fill="#EEEEED" transform="translate(576,456)"/>
<path d="M0 0 C3 1 3 1 3 1 Z " fill="#EAEBE9" transform="translate(532,446)"/>
<path d="" fill="#EEECED" transform="translate(0,0)"/>
<path d="" fill="#DADBDB" transform="translate(0,0)"/>
<path d="" fill="#D9D9DB" transform="translate(0,0)"/>
<path d="" fill="#DEDEDD" transform="translate(0,0)"/>
<path d="M0 0 C2 1 2 1 2 1 Z " fill="#D3D3D5" transform="translate(315,703)"/>
<path d="" fill="#E3E2E4" transform="translate(0,0)"/>
<path d="M0 0 C2 1 2 1 2 1 Z " fill="#E4E2E3" transform="translate(592,701)"/>
<path d="" fill="#DEDDDC" transform="translate(0,0)"/>
<path d="M0 0 C2 1 2 1 2 1 Z " fill="#EBEDEC" transform="translate(392,685)"/>
<path d="" fill="#E2E3E1" transform="translate(0,0)"/>
<path d="" fill="#E8E8E8" transform="translate(0,0)"/>
<path d="" fill="#EEEFEE" transform="translate(0,0)"/>
<path d="" fill="#E3E2E3" transform="translate(0,0)"/>
<path d="" fill="#EBEBEA" transform="translate(0,0)"/>
<path d="" fill="#ECECEB" transform="translate(0,0)"/>
<path d="M0 0 C2 1 2 1 2 1 Z " fill="#EDEEEE" transform="translate(392,621)"/>
<path d="" fill="#F0F2F1" transform="translate(0,0)"/>
<path d="" fill="#EBECED" transform="translate(0,0)"/>
<path d="M0 0 C2 1 2 1 2 1 Z " fill="#ECECEB" transform="translate(685,600)"/>
<path d="" fill="#EDECEB" transform="translate(0,0)"/>
<path d="M0 0 C2 1 2 1 2 1 Z " fill="#EDECEB" transform="translate(683,553)"/>
<path d="" fill="#E5E6E5" transform="translate(0,0)"/>
<path d="" fill="#E5E5E4" transform="translate(0,0)"/>
<path d="M0 0 C2 1 2 1 2 1 Z " fill="#E9EAE9" transform="translate(417,536)"/>
<path d="" fill="#ECEBED" transform="translate(0,0)"/>
<path d="M0 0 C2 1 2 1 2 1 Z " fill="#EEEFED" transform="translate(424,531)"/>
<path d="" fill="#EDEEED" transform="translate(0,0)"/>
<path d="" fill="#EAE9E9" transform="translate(0,0)"/>
<path d="" fill="#ECEBEC" transform="translate(0,0)"/>
<path d="" fill="#DCDEDC" transform="translate(0,0)"/>
<path d="M0 0 C2 1 2 1 2 1 Z " fill="#EDECED" transform="translate(454,502)"/>
<path d="M0 0 C2 1 2 1 2 1 Z " fill="#EEEEED" transform="translate(434,493)"/>
<path d="" fill="#DFDFE0" transform="translate(0,0)"/>
<path d="M0 0 C2 1 2 1 2 1 Z " fill="#EDECEA" transform="translate(408,467)"/>
<path d="M0 0 C2 1 2 1 2 1 Z " fill="#EFF1F1" transform="translate(539,456)"/>
<path d="" fill="#E8E8E7" transform="translate(0,0)"/>
<path d="" fill="#E3E2E3" transform="translate(0,0)"/>
<path d="M0 0 C2 1 2 1 2 1 Z " fill="#E8E8E7" transform="translate(528,443)"/>
<path d="" fill="#EBE9E9" transform="translate(0,0)"/>
<path d="" fill="#E3E3E3" transform="translate(0,0)"/>
<path d="" fill="#DADCDB" transform="translate(0,0)"/>
<path d="M0 0 C2 1 2 1 2 1 Z " fill="#EAEAEA" transform="translate(482,397)"/>
<path d="M0 0 C2 1 2 1 2 1 Z " fill="#F1F1F0" transform="translate(565,374)"/>
<path d="" fill="#D8D9D8" transform="translate(0,0)"/>
<path d="" fill="#D9DADA" transform="translate(0,0)"/>
<path d="M0 0 C2 1 2 1 2 1 Z " fill="#E5E5E6" transform="translate(662,337)"/>
<path d="" fill="#E6E6E5" transform="translate(0,0)"/>
<path d="" fill="#5D5D5E" transform="translate(0,0)"/>
<path d="" fill="#666766" transform="translate(0,0)"/>
<path d="" fill="#6F7070" transform="translate(0,0)"/>
<path d="" fill="#707170" transform="translate(0,0)"/>
<path d="" fill="#717070" transform="translate(0,0)"/>
<path d="" fill="#6B6B6A" transform="translate(0,0)"/>
<path d="" fill="#646462" transform="translate(0,0)"/>
<path d="" fill="#5D5E5E" transform="translate(0,0)"/>
<path d="" fill="#696969" transform="translate(0,0)"/>
<path d="" fill="#737272" transform="translate(0,0)"/>
<path d="" fill="#696868" transform="translate(0,0)"/>
<path d="" fill="#727271" transform="translate(0,0)"/>
<path d="" fill="#6C6B6C" transform="translate(0,0)"/>
<path d="" fill="#6F7071" transform="translate(0,0)"/>
<path d="" fill="#747474" transform="translate(0,0)"/>
<path d="" fill="#747474" transform="translate(0,0)"/>
<path d="" fill="#747474" transform="translate(0,0)"/>
<path d="" fill="#575A58" transform="translate(0,0)"/>
<path d="" fill="#585957" transform="translate(0,0)"/>
<path d="" fill="#5C5C5B" transform="translate(0,0)"/>
<path d="" fill="#626262" transform="translate(0,0)"/>
<path d="" fill="#727371" transform="translate(0,0)"/>
<path d="" fill="#757573" transform="translate(0,0)"/>
<path d="" fill="#747474" transform="translate(0,0)"/>
<path d="" fill="#686B6A" transform="translate(0,0)"/>
<path d="" fill="#636462" transform="translate(0,0)"/>
<path d="" fill="#666665" transform="translate(0,0)"/>
<path d="" fill="#5C5E5C" transform="translate(0,0)"/>
<path d="" fill="#5D605E" transform="translate(0,0)"/>
<path d="" fill="#5E6060" transform="translate(0,0)"/>
<path d="" fill="#676866" transform="translate(0,0)"/>
<path d="" fill="#6C6D6B" transform="translate(0,0)"/>
<path d="" fill="#707170" transform="translate(0,0)"/>
<path d="" fill="#757775" transform="translate(0,0)"/>
<path d="" fill="#6A6A6A" transform="translate(0,0)"/>
<path d="" fill="#5D5D5E" transform="translate(0,0)"/>
<path d="" fill="#585958" transform="translate(0,0)"/>
<path d="" fill="#5B5E5B" transform="translate(0,0)"/>
<path d="" fill="#636463" transform="translate(0,0)"/>
<path d="" fill="#6E6F6E" transform="translate(0,0)"/>
<path d="" fill="#747572" transform="translate(0,0)"/>
<path d="" fill="#757674" transform="translate(0,0)"/>
<path d="" fill="#636462" transform="translate(0,0)"/>
<path d="" fill="#595A5B" transform="translate(0,0)"/>
<path d="" fill="#5C5D5C" transform="translate(0,0)"/>
<path d="" fill="#5F615F" transform="translate(0,0)"/>
<path d="" fill="#616361" transform="translate(0,0)"/>
<path d="" fill="#5D5D5C" transform="translate(0,0)"/>
<path d="" fill="#595A59" transform="translate(0,0)"/>
<path d="" fill="#5C5E5C" transform="translate(0,0)"/>
<path d="" fill="#646363" transform="translate(0,0)"/>
<path d="" fill="#646563" transform="translate(0,0)"/>
<path d="" fill="#656665" transform="translate(0,0)"/>
<path d="" fill="#707071" transform="translate(0,0)"/>
<path d="" fill="#787775" transform="translate(0,0)"/>
<path d="" fill="#787979" transform="translate(0,0)"/>
<path d="" fill="#787878" transform="translate(0,0)"/>
<path d="" fill="#636361" transform="translate(0,0)"/>
<path d="" fill="#5C5C5B" transform="translate(0,0)"/>
<path d="" fill="#7A7A7A" transform="translate(0,0)"/>
<path d="" fill="#5B5A5A" transform="translate(0,0)"/>
<path d="" fill="#5B5A5A" transform="translate(0,0)"/>
<path d="" fill="#5A5B5A" transform="translate(0,0)"/>
<path d="" fill="#616061" transform="translate(0,0)"/>
<path d="" fill="#6A696A" transform="translate(0,0)"/>
<path d="" fill="#777978" transform="translate(0,0)"/>
<path d="" fill="#7B7C7C" transform="translate(0,0)"/>
<path d="" fill="#737372" transform="translate(0,0)"/>
<path d="" fill="#5A5C5A" transform="translate(0,0)"/>
<path d="" fill="#5B5D5C" transform="translate(0,0)"/>
<path d="" fill="#5E5D5E" transform="translate(0,0)"/>
<path d="" fill="#616262" transform="translate(0,0)"/>
<path d="" fill="#646565" transform="translate(0,0)"/>
<path d="" fill="#656764" transform="translate(0,0)"/>
<path d="" fill="#696967" transform="translate(0,0)"/>
<path d="" fill="#726F70" transform="translate(0,0)"/>
<path d="" fill="#727270" transform="translate(0,0)"/>
<path d="" fill="#737373" transform="translate(0,0)"/>
<path d="" fill="#727373" transform="translate(0,0)"/>
<path d="" fill="#7B7A79" transform="translate(0,0)"/>
<path d="" fill="#7B7C78" transform="translate(0,0)"/>
<path d="" fill="#7C7E7D" transform="translate(0,0)"/>
<path d="" fill="#777877" transform="translate(0,0)"/>
<path d="" fill="#717171" transform="translate(0,0)"/>
<path d="" fill="#5A5B5A" transform="translate(0,0)"/>
<path d="" fill="#5C5C5B" transform="translate(0,0)"/>
<path d="" fill="#5D5D5D" transform="translate(0,0)"/>
<path d="" fill="#60615F" transform="translate(0,0)"/>
<path d="" fill="#606260" transform="translate(0,0)"/>
<path d="" fill="#626361" transform="translate(0,0)"/>
<path d="" fill="#656565" transform="translate(0,0)"/>
<path d="" fill="#676666" transform="translate(0,0)"/>
<path d="" fill="#696A69" transform="translate(0,0)"/>
<path d="" fill="#6E6D6C" transform="translate(0,0)"/>
<path d="" fill="#717070" transform="translate(0,0)"/>
<path d="" fill="#767674" transform="translate(0,0)"/>
<path d="" fill="#807F7F" transform="translate(0,0)"/>
<path d="" fill="#7E817E" transform="translate(0,0)"/>
<path d="" fill="#7C7E7C" transform="translate(0,0)"/>
<path d="" fill="#7B7B7A" transform="translate(0,0)"/>
<path d="" fill="#6B6D6B" transform="translate(0,0)"/>
<path d="" fill="#686767" transform="translate(0,0)"/>
<path d="" fill="#666866" transform="translate(0,0)"/>
<path d="" fill="#5C5D5C" transform="translate(0,0)"/>
<path d="" fill="#6B6A6A" transform="translate(0,0)"/>
<path d="" fill="#676666" transform="translate(0,0)"/>
<path d="" fill="#6B6D6D" transform="translate(0,0)"/>
<path d="" fill="#797977" transform="translate(0,0)"/>
<path d="" fill="#7F7F7D" transform="translate(0,0)"/>
<path d="" fill="#7F7F7D" transform="translate(0,0)"/>
<path d="" fill="#7A7B7A" transform="translate(0,0)"/>
<path d="" fill="#666765" transform="translate(0,0)"/>
<path d="" fill="#777978" transform="translate(0,0)"/>
<path d="" fill="#6C6C6A" transform="translate(0,0)"/>
<path d="" fill="#676969" transform="translate(0,0)"/>
<path d="" fill="#6B6C6B" transform="translate(0,0)"/>
<path d="" fill="#7A7A79" transform="translate(0,0)"/>
<path d="" fill="#5F6060" transform="translate(0,0)"/>
<path d="" fill="#606061" transform="translate(0,0)"/>
<path d="" fill="#616162" transform="translate(0,0)"/>
<path d="" fill="#616263" transform="translate(0,0)"/>
<path d="" fill="#646763" transform="translate(0,0)"/>
<path d="" fill="#6D6C6C" transform="translate(0,0)"/>
<path d="" fill="#6D6F6E" transform="translate(0,0)"/>
<path d="" fill="#737673" transform="translate(0,0)"/>
<path d="" fill="#7F8280" transform="translate(0,0)"/>
<path d="" fill="#717372" transform="translate(0,0)"/>
<path d="" fill="#6F6E6E" transform="translate(0,0)"/>
<path d="" fill="#626261" transform="translate(0,0)"/>
<path d="" fill="#626262" transform="translate(0,0)"/>
<path d="" fill="#8D8D8B" transform="translate(0,0)"/>
<path d="" fill="#626362" transform="translate(0,0)"/>
<path d="" fill="#6C6D6B" transform="translate(0,0)"/>
<path d="" fill="#8A8989" transform="translate(0,0)"/>
<path d="" fill="#646766" transform="translate(0,0)"/>
<path d="" fill="#636362" transform="translate(0,0)"/>
<path d="" fill="#676765" transform="translate(0,0)"/>
<path d="" fill="#646565" transform="translate(0,0)"/>
<path d="" fill="#6E7170" transform="translate(0,0)"/>
<path d="" fill="#969796" transform="translate(0,0)"/>
<path d="" fill="#929390" transform="translate(0,0)"/>
<path d="" fill="#A1A2A0" transform="translate(0,0)"/>
<path d="" fill="#6A6A6A" transform="translate(0,0)"/>
<path d="" fill="#6B6D6B" transform="translate(0,0)"/>
<path d="" fill="#676865" transform="translate(0,0)"/>
<path d="" fill="#696A68" transform="translate(0,0)"/>
<path d="" fill="#696A69" transform="translate(0,0)"/>
<path d="" fill="#707170" transform="translate(0,0)"/>
<path d="" fill="#888787" transform="translate(0,0)"/>
<path d="" fill="#6B6C6B" transform="translate(0,0)"/>
<path d="" fill="#757675" transform="translate(0,0)"/>
<path d="" fill="#7A7B79" transform="translate(0,0)"/>
<path d="" fill="#6F6E6E" transform="translate(0,0)"/>
<path d="" fill="#787A78" transform="translate(0,0)"/>
<path d="" fill="#79787A" transform="translate(0,0)"/>
<path d="" fill="#7D7E7F" transform="translate(0,0)"/>
<path d="" fill="#737472" transform="translate(0,0)"/>
<path d="" fill="#E0E1E1" transform="translate(0,0)"/>
<path d="" fill="#E3E2E1" transform="translate(0,0)"/>
<path d="" fill="#DCDEDC" transform="translate(0,0)"/>
<path d="" fill="#E0E0E0" transform="translate(0,0)"/>
<path d="" fill="#E2E4E2" transform="translate(0,0)"/>
<path d="" fill="#DEDDDF" transform="translate(0,0)"/>
<path d="" fill="#E4E3E0" transform="translate(0,0)"/>
<path d="" fill="#E6E8E6" transform="translate(0,0)"/>
<path d="" fill="#E4E2E2" transform="translate(0,0)"/>
<path d="" fill="#E4E5E4" transform="translate(0,0)"/>
<path d="" fill="#DEDEDE" transform="translate(0,0)"/>
<path d="" fill="#D9D7DA" transform="translate(0,0)"/>
<path d="" fill="#E6E6E7" transform="translate(0,0)"/>
<path d="" fill="#E4E3E2" transform="translate(0,0)"/>
<path d="" fill="#E3E0E3" transform="translate(0,0)"/>
<path d="" fill="#E0E0DE" transform="translate(0,0)"/>
<path d="" fill="#E9E9EA" transform="translate(0,0)"/>
<path d="" fill="#E6E6E5" transform="translate(0,0)"/>
<path d="" fill="#DCDDDB" transform="translate(0,0)"/>
<path d="" fill="#F1F0F1" transform="translate(0,0)"/>
<path d="" fill="#F1EDF0" transform="translate(0,0)"/>
<path d="" fill="#757675" transform="translate(0,0)"/>
<path d="" fill="#F1F1F0" transform="translate(0,0)"/>
<path d="" fill="#E6E5E1" transform="translate(0,0)"/>
<path d="" fill="#E2E0DC" transform="translate(0,0)"/>
<path d="" fill="#E7E6E5" transform="translate(0,0)"/>
<path d="" fill="#ECEBEC" transform="translate(0,0)"/>
<path d="" fill="#DFDDE0" transform="translate(0,0)"/>
<path d="" fill="#EBEBEC" transform="translate(0,0)"/>
<path d="" fill="#DFE0DF" transform="translate(0,0)"/>
<path d="" fill="#787777" transform="translate(0,0)"/>
<path d="" fill="#E5E9E6" transform="translate(0,0)"/>
<path d="" fill="#E4E3E3" transform="translate(0,0)"/>
<path d="" fill="#DDDFDE" transform="translate(0,0)"/>
<path d="" fill="#E5E4E4" transform="translate(0,0)"/>
<path d="" fill="#E9E6EA" transform="translate(0,0)"/>
<path d="" fill="#E5E6E3" transform="translate(0,0)"/>
<path d="" fill="#EAEBEA" transform="translate(0,0)"/>
<path d="" fill="#DEDFDE" transform="translate(0,0)"/>
<path d="" fill="#F1F2F2" transform="translate(0,0)"/>
<path d="" fill="#EFEEEE" transform="translate(0,0)"/>
<path d="" fill="#EAEBEA" transform="translate(0,0)"/>
<path d="" fill="#EAEBEB" transform="translate(0,0)"/>
<path d="" fill="#ECEEEF" transform="translate(0,0)"/>
<path d="" fill="#EDEEEB" transform="translate(0,0)"/>
<path d="" fill="#777979" transform="translate(0,0)"/>
<path d="" fill="#ECEAEA" transform="translate(0,0)"/>
<path d="" fill="#EBECEC" transform="translate(0,0)"/>
<path d="" fill="#ECECEA" transform="translate(0,0)"/>
<path d="" fill="#EBEBEA" transform="translate(0,0)"/>
<path d="" fill="#E5E3E1" transform="translate(0,0)"/>
<path d="" fill="#EDECEB" transform="translate(0,0)"/>
<path d="" fill="#EAE7EA" transform="translate(0,0)"/>
<path d="" fill="#E6E7E4" transform="translate(0,0)"/>
<path d="" fill="#EEEEED" transform="translate(0,0)"/>
<path d="" fill="#848384" transform="translate(0,0)"/>
<path d="" fill="#8F8F8E" transform="translate(0,0)"/>
<path d="" fill="#F7F8F6" transform="translate(0,0)"/>
<path d="" fill="#EBEDEC" transform="translate(0,0)"/>
<path d="" fill="#EBEAE9" transform="translate(0,0)"/>
<path d="" fill="#EDEEED" transform="translate(0,0)"/>
<path d="" fill="#ECEDEB" transform="translate(0,0)"/>
<path d="" fill="#777878" transform="translate(0,0)"/>
<path d="" fill="#7A7A7A" transform="translate(0,0)"/>
<path d="" fill="#E1E3E1" transform="translate(0,0)"/>
<path d="" fill="#7C7C7B" transform="translate(0,0)"/>
<path d="" fill="#E2E5E2" transform="translate(0,0)"/>
<path d="" fill="#EDEDEB" transform="translate(0,0)"/>
<path d="" fill="#EAEAE9" transform="translate(0,0)"/>
<path d="" fill="#EBEBEA" transform="translate(0,0)"/>
<path d="" fill="#ECEAEA" transform="translate(0,0)"/>
<path d="" fill="#7C7E7D" transform="translate(0,0)"/>
<path d="" fill="#EBEBEA" transform="translate(0,0)"/>
<path d="" fill="#EDEBEB" transform="translate(0,0)"/>
<path d="" fill="#E6E5E6" transform="translate(0,0)"/>
<path d="" fill="#DCDEDD" transform="translate(0,0)"/>
<path d="" fill="#E2E2E3" transform="translate(0,0)"/>
<path d="" fill="#EFEFEE" transform="translate(0,0)"/>
<path d="" fill="#EAEBEB" transform="translate(0,0)"/>
<path d="" fill="#E9E6E9" transform="translate(0,0)"/>
<path d="" fill="#EFEBED" transform="translate(0,0)"/>
<path d="" fill="#EEECEC" transform="translate(0,0)"/>
<path d="" fill="#EDEDEE" transform="translate(0,0)"/>
<path d="" fill="#E8E9E7" transform="translate(0,0)"/>
<path d="" fill="#E3E2E1" transform="translate(0,0)"/>
<path d="" fill="#EDEDED" transform="translate(0,0)"/>
<path d="" fill="#F6F6F6" transform="translate(0,0)"/>
<path d="" fill="#EBECEB" transform="translate(0,0)"/>
<path d="" fill="#ECEDED" transform="translate(0,0)"/>
<path d="" fill="#EBEAEA" transform="translate(0,0)"/>
<path d="" fill="#7B7979" transform="translate(0,0)"/>
<path d="" fill="#E9EAEA" transform="translate(0,0)"/>
<path d="" fill="#EDECED" transform="translate(0,0)"/>
<path d="" fill="#E0E1E1" transform="translate(0,0)"/>
<path d="" fill="#7E7F7C" transform="translate(0,0)"/>
<path d="" fill="#EAEBEB" transform="translate(0,0)"/>
<path d="" fill="#E6E5E7" transform="translate(0,0)"/>
<path d="" fill="#EEEDEB" transform="translate(0,0)"/>
<path d="" fill="#ECEDEE" transform="translate(0,0)"/>
<path d="" fill="#F1EFF0" transform="translate(0,0)"/>
<path d="" fill="#F0EFF1" transform="translate(0,0)"/>
<path d="" fill="#EDEBED" transform="translate(0,0)"/>
<path d="" fill="#E8EAEA" transform="translate(0,0)"/>
<path d="" fill="#EBECED" transform="translate(0,0)"/>
<path d="" fill="#EEEFEF" transform="translate(0,0)"/>
<path d="" fill="#EDEEEE" transform="translate(0,0)"/>
<path d="" fill="#E9EAEA" transform="translate(0,0)"/>
<path d="" fill="#E7E8E6" transform="translate(0,0)"/>
<path d="" fill="#E4E4E5" transform="translate(0,0)"/>
<path d="" fill="#ECEEED" transform="translate(0,0)"/>
<path d="" fill="#EBECEC" transform="translate(0,0)"/>
<path d="" fill="#E2E1E1" transform="translate(0,0)"/>
<path d="" fill="#EEEEEF" transform="translate(0,0)"/>
<path d="" fill="#EFEEF0" transform="translate(0,0)"/>
<path d="" fill="#EAEAE9" transform="translate(0,0)"/>
<path d="" fill="#EEECEB" transform="translate(0,0)"/>
<path d="" fill="#E3E2E2" transform="translate(0,0)"/>
<path d="" fill="#7D7D7C" transform="translate(0,0)"/>
<path d="" fill="#9D9C9D" transform="translate(0,0)"/>
<path d="" fill="#E1E3E3" transform="translate(0,0)"/>
<path d="" fill="#ECEDEB" transform="translate(0,0)"/>
<path d="" fill="#EBEBEB" transform="translate(0,0)"/>
<path d="" fill="#E8EAEA" transform="translate(0,0)"/>
<path d="" fill="#E6E8E5" transform="translate(0,0)"/>
<path d="" fill="#EEECEC" transform="translate(0,0)"/>
<path d="" fill="#EAEAE9" transform="translate(0,0)"/>
<path d="" fill="#E3E3E3" transform="translate(0,0)"/>
<path d="" fill="#E5E5E5" transform="translate(0,0)"/>
<path d="" fill="#F0EFED" transform="translate(0,0)"/>
<path d="" fill="#EDEBED" transform="translate(0,0)"/>
<path d="" fill="#E5E4E6" transform="translate(0,0)"/>
<path d="" fill="#EBECEB" transform="translate(0,0)"/>
<path d="" fill="#EDEDEC" transform="translate(0,0)"/>
<path d="" fill="#ECECEB" transform="translate(0,0)"/>
<path d="" fill="#F0EEEC" transform="translate(0,0)"/>
<path d="" fill="#EAE9EA" transform="translate(0,0)"/>
<path d="" fill="#ECEEED" transform="translate(0,0)"/>
<path d="" fill="#ECECED" transform="translate(0,0)"/>
<path d="" fill="#EFEEEE" transform="translate(0,0)"/>
<path d="" fill="#F2F0F0" transform="translate(0,0)"/>
<path d="" fill="#E6E7E9" transform="translate(0,0)"/>
<path d="" fill="#F3F2F4" transform="translate(0,0)"/>
<path d="" fill="#EBEBEA" transform="translate(0,0)"/>
<path d="" fill="#7D7E7E" transform="translate(0,0)"/>
<path d="" fill="#80807F" transform="translate(0,0)"/>
<path d="" fill="#ECECEB" transform="translate(0,0)"/>
<path d="" fill="#EAE9E9" transform="translate(0,0)"/>
<path d="" fill="#E9E9EB" transform="translate(0,0)"/>
<path d="" fill="#ECECEB" transform="translate(0,0)"/>
<path d="" fill="#EBE9EA" transform="translate(0,0)"/>
<path d="" fill="#DADDDC" transform="translate(0,0)"/>
<path d="" fill="#E8E4E6" transform="translate(0,0)"/>
<path d="" fill="#E9ECE7" transform="translate(0,0)"/>
<path d="" fill="#E7E7E5" transform="translate(0,0)"/>
<path d="" fill="#EEEEED" transform="translate(0,0)"/>
<path d="" fill="#E6E7E8" transform="translate(0,0)"/>
<path d="" fill="#919292" transform="translate(0,0)"/>
<path d="" fill="#EDEDED" transform="translate(0,0)"/>
<path d="" fill="#E9E9E9" transform="translate(0,0)"/>
<path d="" fill="#EFEEED" transform="translate(0,0)"/>
<path d="" fill="#EDEBEB" transform="translate(0,0)"/>
<path d="" fill="#EBECEB" transform="translate(0,0)"/>
<path d="" fill="#9C9C9C" transform="translate(0,0)"/>
<path d="" fill="#EAEAEB" transform="translate(0,0)"/>
<path d="" fill="#EAE9E8" transform="translate(0,0)"/>
<path d="" fill="#E8EAE9" transform="translate(0,0)"/>
<path d="" fill="#ECEDEC" transform="translate(0,0)"/>
<path d="" fill="#F1F0F2" transform="translate(0,0)"/>
<path d="" fill="#DDDDDD" transform="translate(0,0)"/>
<path d="" fill="#DBDADB" transform="translate(0,0)"/>
<path d="" fill="#EFEFEF" transform="translate(0,0)"/>
<path d="" fill="#F1EFEF" transform="translate(0,0)"/>
<path d="" fill="#F4F2F2" transform="translate(0,0)"/>
<path d="" fill="#F0F0EE" transform="translate(0,0)"/>
<path d="" fill="#EFF1EE" transform="translate(0,0)"/>
<path d="" fill="#EEF0EE" transform="translate(0,0)"/>
<path d="" fill="#F0F0EE" transform="translate(0,0)"/>
<path d="" fill="#EBEDEA" transform="translate(0,0)"/>
<path d="" fill="#F0F0F0" transform="translate(0,0)"/>
<path d="" fill="#EEEEEC" transform="translate(0,0)"/>
<path d="" fill="#E9EAE9" transform="translate(0,0)"/>
<path d="" fill="#F1EFEC" transform="translate(0,0)"/>
<path d="" fill="#E7E6E5" transform="translate(0,0)"/>
<path d="" fill="#848484" transform="translate(0,0)"/>
<path d="" fill="#8B8B88" transform="translate(0,0)"/>
<path d="" fill="#E9EAEA" transform="translate(0,0)"/>
<path d="" fill="#EAE9E9" transform="translate(0,0)"/>
<path d="" fill="#F1F2EE" transform="translate(0,0)"/>
<path d="" fill="#E7E7E8" transform="translate(0,0)"/>
<path d="" fill="#EAEBEB" transform="translate(0,0)"/>
<path d="" fill="#E9EAEA" transform="translate(0,0)"/>
<path d="" fill="#ECEBEA" transform="translate(0,0)"/>
<path d="" fill="#7A7B7A" transform="translate(0,0)"/>
<path d="" fill="#EEECED" transform="translate(0,0)"/>
<path d="" fill="#EAEBEB" transform="translate(0,0)"/>
<path d="" fill="#EFEFED" transform="translate(0,0)"/>
<path d="" fill="#E1DFE0" transform="translate(0,0)"/>
<path d="" fill="#F1F1F0" transform="translate(0,0)"/>
<path d="" fill="#EAE8E9" transform="translate(0,0)"/>
<path d="" fill="#EEEFEE" transform="translate(0,0)"/>
<path d="" fill="#EBEBEC" transform="translate(0,0)"/>
<path d="" fill="#EFEDED" transform="translate(0,0)"/>
<path d="" fill="#767777" transform="translate(0,0)"/>
<path d="" fill="#797A78" transform="translate(0,0)"/>
<path d="" fill="#EBEDEC" transform="translate(0,0)"/>
<path d="" fill="#E8E8E6" transform="translate(0,0)"/>
<path d="" fill="#F3F2EE" transform="translate(0,0)"/>
<path d="" fill="#EBEBE9" transform="translate(0,0)"/>
<path d="" fill="#E7E6E7" transform="translate(0,0)"/>
<path d="" fill="#EAEDEC" transform="translate(0,0)"/>
<path d="" fill="#DADCDB" transform="translate(0,0)"/>
<path d="" fill="#EFF1EF" transform="translate(0,0)"/>
<path d="" fill="#DADCDB" transform="translate(0,0)"/>
<path d="" fill="#DCDCDD" transform="translate(0,0)"/>
<path d="" fill="#E2E2E1" transform="translate(0,0)"/>
<path d="" fill="#F0F0EE" transform="translate(0,0)"/>
<path d="" fill="#F3EFEF" transform="translate(0,0)"/>
<path d="" fill="#ECEEED" transform="translate(0,0)"/>
<path d="" fill="#EEECEC" transform="translate(0,0)"/>
<path d="" fill="#DBDBDC" transform="translate(0,0)"/>
<path d="" fill="#F0F0EE" transform="translate(0,0)"/>
<path d="" fill="#DBDADB" transform="translate(0,0)"/>
<path d="" fill="#F1EFEE" transform="translate(0,0)"/>
<path d="" fill="#EBEBEB" transform="translate(0,0)"/>
<path d="" fill="#D8DAD8" transform="translate(0,0)"/>
<path d="" fill="#ECECEA" transform="translate(0,0)"/>
<path d="" fill="#EEEEEE" transform="translate(0,0)"/>
<path d="" fill="#939495" transform="translate(0,0)"/>
<path d="" fill="#E9E8E9" transform="translate(0,0)"/>
<path d="" fill="#7B7D7C" transform="translate(0,0)"/>
<path d="" fill="#EAEBEA" transform="translate(0,0)"/>
<path d="" fill="#F1F2EE" transform="translate(0,0)"/>
<path d="" fill="#E4E5E2" transform="translate(0,0)"/>
<path d="" fill="#EEECEC" transform="translate(0,0)"/>
<path d="" fill="#E1E1E3" transform="translate(0,0)"/>
<path d="" fill="#E9EAE8" transform="translate(0,0)"/>
<path d="" fill="#A8A9A9" transform="translate(0,0)"/>
<path d="" fill="#EBEAE8" transform="translate(0,0)"/>
<path d="" fill="#EAE8E7" transform="translate(0,0)"/>
<path d="" fill="#EDECEC" transform="translate(0,0)"/>
<path d="" fill="#E7E6E6" transform="translate(0,0)"/>
<path d="" fill="#EAE9E8" transform="translate(0,0)"/>
<path d="" fill="#E6E8E9" transform="translate(0,0)"/>
<path d="" fill="#E0DEDF" transform="translate(0,0)"/>
<path d="" fill="#E7E7E6" transform="translate(0,0)"/>
<path d="" fill="#E7E6E6" transform="translate(0,0)"/>
<path d="" fill="#D9DADA" transform="translate(0,0)"/>
<path d="" fill="#727473" transform="translate(0,0)"/>
<path d="" fill="#818382" transform="translate(0,0)"/>
<path d="" fill="#8C8D8D" transform="translate(0,0)"/>
<path d="" fill="#8D8E8B" transform="translate(0,0)"/>
<path d="" fill="#ECEBEB" transform="translate(0,0)"/>
<path d="" fill="#EDEFED" transform="translate(0,0)"/>
<path d="" fill="#EAE9EA" transform="translate(0,0)"/>
<path d="" fill="#E1E0E0" transform="translate(0,0)"/>
<path d="" fill="#E3E3E4" transform="translate(0,0)"/>
<path d="" fill="#E9EBE9" transform="translate(0,0)"/>
<path d="" fill="#DBDADA" transform="translate(0,0)"/>
<path d="" fill="#EAECEA" transform="translate(0,0)"/>
<path d="" fill="#E3E3E2" transform="translate(0,0)"/>
<path d="" fill="#EAE8E7" transform="translate(0,0)"/>
<path d="" fill="#E9E9E9" transform="translate(0,0)"/>
<path d="" fill="#777977" transform="translate(0,0)"/>
<path d="" fill="#E9E8E7" transform="translate(0,0)"/>
<path d="" fill="#C2C3C2" transform="translate(0,0)"/>
<path d="" fill="#E4E4E2" transform="translate(0,0)"/>
<path d="" fill="#E7E7E7" transform="translate(0,0)"/>
<path d="" fill="#EAEBE8" transform="translate(0,0)"/>
<path d="" fill="#E8E8E7" transform="translate(0,0)"/>
<path d="" fill="#EEECE9" transform="translate(0,0)"/>
<path d="" fill="#E8E7E7" transform="translate(0,0)"/>
<path d="" fill="#E5E9E6" transform="translate(0,0)"/>
<path d="" fill="#E2E2DF" transform="translate(0,0)"/>
<path d="" fill="#E8E7E6" transform="translate(0,0)"/>
<path d="" fill="#ECEDEE" transform="translate(0,0)"/>
<path d="" fill="#E5E4E4" transform="translate(0,0)"/>
<path d="" fill="#747573" transform="translate(0,0)"/>
<path d="" fill="#717270" transform="translate(0,0)"/>
<path d="" fill="#797A79" transform="translate(0,0)"/>
<path d="" fill="#7A7B7A" transform="translate(0,0)"/>
<path d="" fill="#757676" transform="translate(0,0)"/>
<path d="" fill="#717171" transform="translate(0,0)"/>
<path d="" fill="#727471" transform="translate(0,0)"/>
<path d="" fill="#868685" transform="translate(0,0)"/>
<path d="" fill="#717372" transform="translate(0,0)"/>
<path d="" fill="#727271" transform="translate(0,0)"/>
<path d="" fill="#6A6B6A" transform="translate(0,0)"/>
<path d="" fill="#787877" transform="translate(0,0)"/>
<path d="" fill="#80817F" transform="translate(0,0)"/>
<path d="" fill="#747474" transform="translate(0,0)"/>
<path d="" fill="#727271" transform="translate(0,0)"/>
<path d="" fill="#6A6969" transform="translate(0,0)"/>
<path d="" fill="#727473" transform="translate(0,0)"/>
<path d="" fill="#696968" transform="translate(0,0)"/>
<path d="" fill="#6C6E6E" transform="translate(0,0)"/>
<path d="" fill="#676868" transform="translate(0,0)"/>
<path d="" fill="#696969" transform="translate(0,0)"/>
<path d="" fill="#6B6A6A" transform="translate(0,0)"/>
<path d="" fill="#717371" transform="translate(0,0)"/>
<path d="" fill="#959695" transform="translate(0,0)"/>
<path d="" fill="#969697" transform="translate(0,0)"/>
<path d="" fill="#605F5E" transform="translate(0,0)"/>
<path d="" fill="#7D7D7E" transform="translate(0,0)"/>
<path d="" fill="#747473" transform="translate(0,0)"/>
<path d="" fill="#626462" transform="translate(0,0)"/>
<path d="" fill="#666767" transform="translate(0,0)"/>
<path d="" fill="#696967" transform="translate(0,0)"/>
<path d="" fill="#6D6D6D" transform="translate(0,0)"/>
<path d="" fill="#8E8F8E" transform="translate(0,0)"/>
<path d="" fill="#888986" transform="translate(0,0)"/>
<path d="" fill="#8F8F8D" transform="translate(0,0)"/>
<path d="" fill="#5F5F5C" transform="translate(0,0)"/>
<path d="" fill="#5F6161" transform="translate(0,0)"/>
<path d="" fill="#656566" transform="translate(0,0)"/>
<path d="" fill="#696A69" transform="translate(0,0)"/>
<path d="" fill="#6B6C6B" transform="translate(0,0)"/>
<path d="" fill="#8D8D8D" transform="translate(0,0)"/>
<path d="" fill="#7F7F7F" transform="translate(0,0)"/>
<path d="" fill="#646463" transform="translate(0,0)"/>
<path d="" fill="#5F5F60" transform="translate(0,0)"/>
<path d="" fill="#6B6C69" transform="translate(0,0)"/>
<path d="" fill="#6E706E" transform="translate(0,0)"/>
<path d="" fill="#656766" transform="translate(0,0)"/>
<path d="" fill="#6D6E6C" transform="translate(0,0)"/>
<path d="" fill="#636265" transform="translate(0,0)"/>
<path d="" fill="#5C5D5B" transform="translate(0,0)"/>
<path d="" fill="#646562" transform="translate(0,0)"/>
<path d="" fill="#6B6B6A" transform="translate(0,0)"/>
<path d="" fill="#7F7F7F" transform="translate(0,0)"/>
<path d="" fill="#838281" transform="translate(0,0)"/>
<path d="" fill="#7D7E7D" transform="translate(0,0)"/>
<path d="" fill="#5F6060" transform="translate(0,0)"/>
<path d="" fill="#5A5C5C" transform="translate(0,0)"/>
<path d="" fill="#666766" transform="translate(0,0)"/>
<path d="" fill="#6A6A6B" transform="translate(0,0)"/>
<path d="" fill="#737372" transform="translate(0,0)"/>
<path d="" fill="#7E7E7B" transform="translate(0,0)"/>
<path d="" fill="#5C5D5C" transform="translate(0,0)"/>
<path d="" fill="#5F5E5F" transform="translate(0,0)"/>
<path d="" fill="#666565" transform="translate(0,0)"/>
<path d="" fill="#6C6C6B" transform="translate(0,0)"/>
<path d="" fill="#5D5E5E" transform="translate(0,0)"/>
<path d="" fill="#7D7C7C" transform="translate(0,0)"/>
<path d="" fill="#585958" transform="translate(0,0)"/>
<path d="" fill="#5A5B5A" transform="translate(0,0)"/>
<path d="" fill="#5F5F5E" transform="translate(0,0)"/>
<path d="" fill="#61615F" transform="translate(0,0)"/>
<path d="" fill="#646463" transform="translate(0,0)"/>
<path d="" fill="#686867" transform="translate(0,0)"/>
<path d="" fill="#727473" transform="translate(0,0)"/>
<path d="" fill="#797777" transform="translate(0,0)"/>
<path d="" fill="#7D7B7C" transform="translate(0,0)"/>
<path d="" fill="#757675" transform="translate(0,0)"/>
<path d="" fill="#717070" transform="translate(0,0)"/>
<path d="" fill="#5F605D" transform="translate(0,0)"/>
<path d="" fill="#595857" transform="translate(0,0)"/>
<path d="" fill="#656564" transform="translate(0,0)"/>
<path d="" fill="#686A67" transform="translate(0,0)"/>
<path d="" fill="#737372" transform="translate(0,0)"/>
<path d="" fill="#747472" transform="translate(0,0)"/>
<path d="" fill="#767775" transform="translate(0,0)"/>
<path d="" fill="#787978" transform="translate(0,0)"/>
<path d="" fill="#787979" transform="translate(0,0)"/>
<path d="" fill="#606060" transform="translate(0,0)"/>
<path d="" fill="#5B5E5C" transform="translate(0,0)"/>
<path d="" fill="#5C5C5B" transform="translate(0,0)"/>
<path d="" fill="#686666" transform="translate(0,0)"/>
<path d="" fill="#737473" transform="translate(0,0)"/>
<path d="" fill="#6E6E6F" transform="translate(0,0)"/>
<path d="" fill="#5D5D5D" transform="translate(0,0)"/>
<path d="" fill="#62625F" transform="translate(0,0)"/>
<path d="" fill="#5F6260" transform="translate(0,0)"/>
<path d="" fill="#6D6D6D" transform="translate(0,0)"/>
<path d="" fill="#767576" transform="translate(0,0)"/>
<path d="" fill="#777676" transform="translate(0,0)"/>
<path d="" fill="#767776" transform="translate(0,0)"/>
<path d="" fill="#767674" transform="translate(0,0)"/>
<path d="" fill="#666867" transform="translate(0,0)"/>
<path d="" fill="#656566" transform="translate(0,0)"/>
<path d="" fill="#5F5E5C" transform="translate(0,0)"/>
<path d="" fill="#717371" transform="translate(0,0)"/>
<path d="" fill="#767674" transform="translate(0,0)"/>
<path d="" fill="#5F5F5E" transform="translate(0,0)"/>
<path d="" fill="#565958" transform="translate(0,0)"/>
<path d="" fill="#5F6160" transform="translate(0,0)"/>
<path d="" fill="#6B6C6A" transform="translate(0,0)"/>
<path d="" fill="#6C6C6C" transform="translate(0,0)"/>
<path d="" fill="#777776" transform="translate(0,0)"/>
<path d="" fill="#767675" transform="translate(0,0)"/>
<path d="" fill="#5B5C5B" transform="translate(0,0)"/>
<path d="" fill="#585959" transform="translate(0,0)"/>
<path d="" fill="#656565" transform="translate(0,0)"/>
<path d="" fill="#737574" transform="translate(0,0)"/>
<path d="" fill="#767575" transform="translate(0,0)"/>
<path d="" fill="#595A58" transform="translate(0,0)"/>
<path d="" fill="#5E5E5E" transform="translate(0,0)"/>
<path d="" fill="#5F5F5E" transform="translate(0,0)"/>
<path d="" fill="#636262" transform="translate(0,0)"/>
<path d="" fill="#666664" transform="translate(0,0)"/>
<path d="" fill="#6A6C6A" transform="translate(0,0)"/>
<path d="" fill="#717170" transform="translate(0,0)"/>
<path d="" fill="#727371" transform="translate(0,0)"/>
<path d="" fill="#757474" transform="translate(0,0)"/>
<path d="" fill="#747573" transform="translate(0,0)"/>
<path d="" fill="#6E6E6E" transform="translate(0,0)"/>
<path d="" fill="#6B6D6B" transform="translate(0,0)"/>
<path d="" fill="#696A6A" transform="translate(0,0)"/>
<path d="" fill="#666765" transform="translate(0,0)"/>
<path d="" fill="#626262" transform="translate(0,0)"/>
<path d="" fill="#5A5A5A" transform="translate(0,0)"/>
<path d="" fill="#5B5C5A" transform="translate(0,0)"/>
<path d="" fill="#6F706F" transform="translate(0,0)"/>
<path d="" fill="#727372" transform="translate(0,0)"/>
<path d="" fill="#767674" transform="translate(0,0)"/>
<path d="" fill="#6E6F6F" transform="translate(0,0)"/>
<path d="" fill="#616160" transform="translate(0,0)"/>
</svg>
